<?xml version="1.0" encoding="UTF-8"?>
<svg version="1.1" xmlns="http://www.w3.org/2000/svg" width="200" height="200">
<path d="M0 0 C66 0 132 0 200 0 C200 66 200 132 200 200 C134 200 68 200 0 200 C0 134 0 68 0 0 Z " fill="#1E9BF2" transform="translate(0,0)"/>
<path d="M0 0 C66 0 132 0 200 0 C200 66 200 132 200 200 C134 200 68 200 0 200 C0 134 0 68 0 0 Z M75 13 C74.1234375 13.43441406 73.246875 13.86882813 72.34375 14.31640625 C61.19283815 20.3564835 53.41647968 29.66418444 48 41 C47.56558594 41.90363281 47.13117187 42.80726562 46.68359375 43.73828125 C42.24464395 55.16819031 43.64954 67.96169905 44 80 C43.24404541 80.29406738 42.48809082 80.58813477 41.70922852 80.89111328 C25.14528735 87.67073127 12.6951705 98.97904866 5.4921875 115.33203125 C0.44069969 127.74917013 -0.1546338 142.73963204 4.80078125 155.328125 C5.39439453 156.65070313 5.39439453 156.65070313 6 158 C6.57814453 159.32257813 6.57814453 159.32257813 7.16796875 160.671875 C13.53522104 174.27183134 23.22679365 183.02775254 37 189 C37.79792969 189.35320312 38.59585938 189.70640625 39.41796875 190.0703125 C51.55795198 194.44144111 67.77645271 193.57074405 79.58203125 188.71875 C82.18455465 187.41005252 84.68513629 186.05673748 87.19921875 184.59375 C87.91489014 184.17730225 88.63056152 183.76085449 89.36791992 183.33178711 C90.75951262 182.50333292 92.13710882 181.65076618 93.49731445 180.77172852 C96.71382319 178.79344606 98.39296317 177.89098724 102.17578125 178.5703125 C104.77376749 179.88547566 107.23939455 181.2372335 109.6875 182.8125 C124.34673047 191.84719189 138.89726149 194.28612088 155.91796875 191.31640625 C167.35214106 188.02412963 176.86591446 181.65328249 185 173 C185 172.34 185 171.68 185 171 C185.66 171 186.32 171 187 171 C196.27642279 154.67261452 201.2250996 139.58739706 196.5 120.75 C191.41732921 105.25318556 180.96266146 93.19759044 167 85 C166.17757812 84.51402344 165.35515625 84.02804688 164.5078125 83.52734375 C160.49520532 80.96102408 160.49520532 80.96102408 156 80 C156.02094727 79.28046143 156.04189453 78.56092285 156.06347656 77.81958008 C156.50037228 60.54699076 156.44333729 46.97775217 147 32 C146.34 32 145.68 32 145 32 C144.62294922 30.89205078 144.62294922 30.89205078 144.23828125 29.76171875 C142.90761914 26.79396445 141.49021185 25.0887945 139.1875 22.8125 C138.18783203 21.80123047 138.18783203 21.80123047 137.16796875 20.76953125 C134.86844941 18.89262628 132.7960794 17.95154535 130 17 C130 16.34 130 15.68 130 15 C128.19186125 14.19842242 126.37819627 13.40930825 124.5625 12.625 C123.04849609 11.96371094 123.04849609 11.96371094 121.50390625 11.2890625 C106.60369986 5.80738122 89.15846553 5.50317205 75 13 Z " fill="#FDFEFE" transform="translate(0,0)"/>
<path d="M0 0 C0.93489258 0.00418945 1.86978516 0.00837891 2.83300781 0.01269531 C13.44077343 0.18562802 22.39180268 2.59484881 31.875 7.3125 C31.875 7.9725 31.875 8.6325 31.875 9.3125 C32.60203125 9.55226563 33.3290625 9.79203125 34.078125 10.0390625 C37.27358166 11.49397712 39.16086295 13.1985562 41.625 15.6875 C42.79289062 16.84378906 42.79289062 16.84378906 43.984375 18.0234375 C45.81759986 20.24300313 46.49037643 21.50474793 46.875 24.3125 C47.535 24.3125 48.195 24.3125 48.875 24.3125 C50.01049767 26.4741961 51.13328972 28.6411189 52.25 30.8125 C52.56710938 31.41320312 52.88421875 32.01390625 53.2109375 32.6328125 C57.83518136 41.68862339 58.14337581 49.77619361 58 59.8125 C57.99097656 61.01648438 57.98195313 62.22046875 57.97265625 63.4609375 C57.94923775 66.4116679 57.91643993 69.36197689 57.875 72.3125 C58.64303955 72.61341553 59.4110791 72.91433105 60.20239258 73.22436523 C76.44116692 79.83587681 89.68211571 92.37782124 96.875 108.3125 C101.94074894 121.802191 101.53296804 137.12144484 95.875 150.3125 C93.73210875 154.75467177 91.35793544 159.05105743 88.875 163.3125 C88.215 163.3125 87.555 163.3125 86.875 163.3125 C86.62234375 163.89386719 86.3696875 164.47523438 86.109375 165.07421875 C80.83252308 174.64268757 68.0893969 180.55092293 58 183.75 C51.36523879 184.81966017 44.57199029 184.45879348 37.875 184.3125 C36.49010632 179.35765817 36.98379385 174.56660852 37.3125 169.5 C37.36470703 168.61634766 37.41691406 167.73269531 37.47070312 166.82226562 C37.59974619 164.65199592 37.73659956 162.48219307 37.875 160.3125 C35.235 160.3125 32.595 160.3125 29.875 160.3125 C29.875 159.3225 29.875 158.3325 29.875 157.3125 C33.15780143 156.24687859 36.33541325 156.20070279 39.7644043 156.12451172 C48.6829906 155.87712492 55.81666201 154.85203409 62.703125 148.671875 C68.58576932 142.33232627 71.25666242 134.66338662 71.15625 126.078125 C70.54633897 120.08066652 68.3188639 115.06033525 64.5 110.4375 C61.83048152 108.20640593 61.83048152 108.20640593 58.5625 106.125 C57.675625 105.526875 56.78875 104.92875 55.875 104.3125 C55.875 103.6525 55.875 102.9925 55.875 102.3125 C55.33875 102.209375 54.8025 102.10625 54.25 102 C51.875 101.3125 51.875 101.3125 49.0625 99.6875 C44.95824755 97.91703816 43.16950257 98.07510095 38.875 99.3125 C36.68645065 100.62125251 34.63647927 102.06340372 32.5625 103.546875 C27.29430766 107.00795485 21.53821662 109.56336572 15.875 112.3125 C15.875 107.0325 15.875 101.7525 15.875 96.3125 C14.555 95.6525 13.235 94.9925 11.875 94.3125 C10.28746851 93.44514008 8.7041761 92.56998076 7.125 91.6875 C6.32578125 91.24148437 5.5265625 90.79546875 4.703125 90.3359375 C3.79820313 89.82933594 3.79820313 89.82933594 2.875 89.3125 C2.875 88.6525 2.875 87.9925 2.875 87.3125 C5.26171875 85.61328125 5.26171875 85.61328125 8.5625 83.625 C9.13959717 83.27630859 9.71669434 82.92761719 10.3112793 82.56835938 C16.38384571 78.93647701 22.60788479 75.5947862 28.875 72.3125 C29.97082371 54.03685296 29.97082371 54.03685296 22.625 37.9375 C16.60737522 31.63998569 10.37640441 29.20772472 1.75 28.9375 C-5.04092526 28.96044232 -9.3831263 30.93166703 -15.125 34.3125 C-16.61 34.8075 -16.61 34.8075 -18.125 35.3125 C-18.455 36.3025 -18.785 37.2925 -19.125 38.3125 C-22.095 38.8075 -22.095 38.8075 -25.125 39.3125 C-26.57462183 36.41325634 -26.34626481 33.78949645 -26.44140625 30.5546875 C-26.46218735 29.89163605 -26.48296844 29.22858459 -26.50437927 28.54544067 C-26.56979231 26.42623306 -26.62872105 24.306901 -26.6875 22.1875 C-26.73069309 20.75128919 -26.77430764 19.31509098 -26.81835938 17.87890625 C-26.92546499 14.35690406 -27.02675575 10.83476175 -27.125 7.3125 C-17.74285462 2.93861728 -10.41490801 -0.06312065 0 0 Z " fill="#0ED1EA" transform="translate(98.125,7.6875)"/>
<path d="M0 0 C0.99 0 1.98 0 3 0 C4.13549767 2.1616961 5.25828972 4.3286189 6.375 6.5 C6.69210938 7.10070313 7.00921875 7.70140625 7.3359375 8.3203125 C11.96018136 17.37612339 12.26837581 25.46369361 12.125 35.5 C12.11597656 36.70398438 12.10695312 37.90796875 12.09765625 39.1484375 C12.07423775 42.0991679 12.04143993 45.04947689 12 48 C12.76803955 48.30091553 13.5360791 48.60183105 14.32739258 48.91186523 C30.56616692 55.52337681 43.80711571 68.06532124 51 84 C56.06574894 97.489691 55.65796804 112.80894484 50 126 C47.85710875 130.44217177 45.48293544 134.73855743 43 139 C42.34 139 41.68 139 41 139 C40.74734375 139.58136719 40.4946875 140.16273438 40.234375 140.76171875 C34.95752308 150.33018757 22.2143969 156.23842293 12.125 159.4375 C5.49023879 160.50716017 -1.30300971 160.14629348 -8 160 C-9.38489368 155.04515817 -8.89120615 150.25410852 -8.5625 145.1875 C-8.51029297 144.30384766 -8.45808594 143.42019531 -8.40429688 142.50976562 C-8.27525381 140.33949592 -8.13840044 138.16969307 -8 136 C-10.64 136 -13.28 136 -16 136 C-16 135.01 -16 134.02 -16 133 C-12.71719857 131.93437859 -9.53958675 131.88820279 -6.1105957 131.81201172 C2.8079906 131.56462492 9.94166201 130.53953409 16.828125 124.359375 C22.71076932 118.01982627 25.38166242 110.35088662 25.28125 101.765625 C24.53948326 94.47158539 21.57847545 88.74170413 16 84 C13.6875 81.9375 13.6875 81.9375 12 80 C12 78.68 12 77.36 12 76 C12.99 75.505 12.99 75.505 14 75 C14.33 75.99 14.66 76.98 15 78 C14.979375 76.72125 14.95875 75.4425 14.9375 74.125 C14.875 70.25 14.875 70.25 16 68 C15.34 67.67 14.68 67.34 14 67 C14.144375 66.32453125 14.28875 65.6490625 14.4375 64.953125 C14.623125 64.06109375 14.80875 63.1690625 15 62.25 C15.185625 61.36828125 15.37125 60.4865625 15.5625 59.578125 C16.11153675 56.77856035 16.11153675 56.77856035 16 53 C14.515 52.505 14.515 52.505 13 52 C13.04382813 52.88042969 13.08765625 53.76085937 13.1328125 54.66796875 C13.12465466 58.3430752 12.96766048 61.44761085 12 65 C8.65448622 67.97509661 4.54948847 70 0 70 C0 68.02 0 66.04 0 64 C2.97 64 5.94 64 9 64 C8.9278125 63.21625 8.855625 62.4325 8.78125 61.625 C7.60350956 46.44523432 7.91003276 31.21415246 8 16 C5.36 16 2.72 16 0 16 C0 10.66666667 0 5.33333333 0 0 Z " fill="#0CCDEB" transform="translate(144,32)"/>
<path d="M0 0 C6.8440171 4.28765498 12.70333476 9.35775842 14.9765625 17.23828125 C15.35537546 18.89520298 15.6766834 20.56527156 15.9765625 22.23828125 C16.10361572 22.93050781 16.23066895 23.62273438 16.36157227 24.3359375 C17.31493933 30.29463456 18.12547872 36.47560032 15.9765625 42.23828125 C11.50896 47.12925986 5.23912178 49.64354368 -0.75488281 52.19921875 C-2.84428308 53.15622344 -4.63324763 54.21044936 -6.515625 55.51953125 C-9.0234375 57.23828125 -9.0234375 57.23828125 -11.0234375 57.23828125 C-9.29033986 59.24775326 -8.01708108 60.24095395 -5.54296875 61.28125 C-2.3983662 62.61078614 -0.39901876 63.76442954 1.9765625 66.23828125 C3.60273626 71.61496138 4.12161238 76.91822259 1.9765625 82.23828125 C-1.81572187 86.26452291 -5.64290588 88.68172654 -11.0234375 90.23828125 C-14.1484375 89.55078125 -14.1484375 89.55078125 -17.0234375 88.23828125 C-17.86648437 87.92632812 -18.70953125 87.614375 -19.578125 87.29296875 C-22.3839204 85.86645324 -24.04743514 84.71459059 -26.0234375 82.23828125 C-27.4980871 76.54949071 -27.56955983 71.91708394 -26.0234375 66.23828125 C-22.81454285 62.78534445 -19.42185405 60.87613006 -15.0234375 59.23828125 C-14.3634375 59.23828125 -13.7034375 59.23828125 -13.0234375 59.23828125 C-13.0234375 58.57828125 -13.0234375 57.91828125 -13.0234375 57.23828125 C-13.70792969 56.98691406 -14.39242187 56.73554687 -15.09765625 56.4765625 C-18.49697609 55.03786505 -21.64951942 53.27494847 -24.8359375 51.42578125 C-25.7031543 50.92981445 -25.7031543 50.92981445 -26.58789062 50.42382812 C-27.77744704 49.73901167 -28.95940958 49.04085087 -30.13378906 48.33032227 C-32.04575336 47.18874504 -32.04575336 47.18874504 -34.23339844 46.20678711 C-36.49984506 45.05621085 -38.22669157 44.04116418 -40.0234375 42.23828125 C-41.05093134 38.92469859 -40.87590735 35.86057594 -40.6484375 32.42578125 C-40.62910156 31.56146484 -40.60976562 30.69714844 -40.58984375 29.80664062 C-40.25447357 20.14652133 -38.15873736 13.22496638 -31.8984375 5.67578125 C-22.95325199 -1.90818038 -11.15773944 -5.00911281 0 0 Z " fill="#FDFDFD" transform="translate(112.0234375,37.76171875)"/>
<path d="M0 0 C4.38235776 1.00578703 7.91016198 2.69577228 11.8125 4.875 C11.8125 5.535 11.8125 6.195 11.8125 6.875 C12.534375 7.101875 13.25625 7.32875 14 7.5625 C20.33116187 10.51704221 24.23513728 16.40480202 27.0625 22.625 C29.17850303 31.79434648 27.57608141 38.9400332 23.0625 47 C18.86743312 52.36036323 13.6495195 57.36260629 6.8125 58.875 C-0.37132631 59.63763425 -6.93840099 59.46098691 -13.48120117 56.20068359 C-16.21035357 54.8161425 -16.21035357 54.8161425 -19.24633789 53.68798828 C-22.80645426 52.07866953 -25.36941794 50.59922553 -28.1875 47.875 C-29.72611449 43.02954229 -29.84088162 38.62681343 -29.64208984 33.57739258 C-29.56232967 31.30765294 -29.60064327 29.06115906 -29.65234375 26.79101562 C-29.64165356 16.42210155 -29.64165356 16.42210155 -26.09057617 12.64404297 C-23.5121044 11.08698187 -20.99506128 9.95542301 -18.1875 8.875 C-17.00738402 8.21855289 -15.83906037 7.53980368 -14.69140625 6.828125 C-12.71229957 5.68218806 -10.7331318 4.53635661 -8.75390625 3.390625 C-2.82497512 -0.11078334 -2.82497512 -0.11078334 0 0 Z " fill="#FDFDFE" transform="translate(142.1875,105.125)"/>
<path d="M0 0 C2.36803532 1.255467 4.54803869 2.49964284 6.71875 4.06640625 C12.83696975 8.19620458 19.3097365 11.77911282 25.71875 15.44140625 C25.71875 26.33140625 25.71875 37.22140625 25.71875 48.44140625 C23.2025 49.88515625 20.68625 51.32890625 18.09375 52.81640625 C17.31306152 53.26806152 16.53237305 53.7197168 15.72802734 54.18505859 C7.02465945 59.1277938 -1.02994443 61.08753596 -11 58.82421875 C-18.0349222 56.37068107 -23.87016834 51.9872998 -27.40625 45.3203125 C-31.03076042 36.10220668 -30.93138815 28.55291882 -27.7421875 19.28515625 C-24.0545464 12.10707412 -18.64680622 7.87878654 -11.78125 3.87890625 C-11.04777344 3.41677734 -10.31429687 2.95464844 -9.55859375 2.47851562 C-4.16673425 -0.7093369 -4.16673425 -0.7093369 0 0 Z " fill="#FDFDFD" transform="translate(60.28125,104.55859375)"/>
<path d="M0 0 C3.63 1.98 7.26 3.96 11 6 C14.9154908 7.43155782 14.9154908 7.43155782 17.98046875 5.56640625 C19.56794922 4.57447266 19.56794922 4.57447266 21.1875 3.5625 C26.95303327 0 26.95303327 0 28 0 C28 10.89 28 21.78 28 33 C29.65 33.66 31.3 34.32 33 35 C35.20048366 36.14198907 37.38740045 37.31037429 39.5625 38.5 C44.74066065 41.3280696 44.74066065 41.3280696 50 44 C47.36 44.33 44.72 44.66 42 45 C42 45.99 42 46.98 42 48 C44.64 48 47.28 48 50 48 C50 55.92 50 63.84 50 72 C42.55558919 71.25555892 38.15888581 70.72349422 31.875 67.5625 C31.15779785 67.21413086 30.4405957 66.86576172 29.70166016 66.50683594 C22.49546131 62.91713094 15.7056429 58.67861233 8.99365234 54.24511719 C6.05009803 52.40674748 3.01320592 50.72183195 0 49 C0 32.83 0 16.66 0 0 Z " fill="#3A7AEF" transform="translate(86,120)"/>
<path d="M0 0 C0.99 0.33 1.98 0.66 3 1 C3.33 10.24 3.66 19.48 4 29 C5.65 29.33 7.3 29.66 9 30 C8.72285156 30.50789063 8.44570312 31.01578125 8.16015625 31.5390625 C7.61681641 32.57160156 7.61681641 32.57160156 7.0625 33.625 C6.70285156 34.29789063 6.34320313 34.97078125 5.97265625 35.6640625 C3.58359988 41.40163563 3.71898466 47.74694054 3.4375 53.875 C3.39431641 54.75414062 3.35113281 55.63328125 3.30664062 56.5390625 C3.20130661 58.69255797 3.10022351 60.84626064 3 63 C1.55903414 62.57405412 0.12231288 62.13373367 -1.3125 61.6875 C-2.11300781 61.44386719 -2.91351563 61.20023438 -3.73828125 60.94921875 C-6.11628707 59.95119558 -7.22474532 58.81486806 -9 57 C-12.98606577 57.20157918 -15.5001846 58.77347723 -18.6875 61.0625 C-22.8 64 -22.8 64 -25 64 C-25.84214728 35.07224107 -25.84214728 35.07224107 -21 25 C-20.51402344 23.98292969 -20.02804688 22.96585938 -19.52734375 21.91796875 C-14.99510025 13.39992245 -8.32373736 5.11832298 0 0 Z " fill="#635DE4" transform="translate(69,16)"/>
<path d="M0 0 C0.66 0.33 1.32 0.66 2 1 C2 3.64 2 6.28 2 9 C-0.31 9.33 -2.62 9.66 -5 10 C-5.33 12.31 -5.66 14.62 -6 17 C-7.134375 17.12375 -8.26875 17.2475 -9.4375 17.375 C-11.2009375 17.684375 -11.2009375 17.684375 -13 18 C-14.30648558 20.61297116 -14.13422943 22.54577887 -14.14526367 25.47192383 C-14.15164352 26.61683792 -14.15802338 27.76175201 -14.16459656 28.94136047 C-14.16570938 30.18403183 -14.1668222 31.42670319 -14.16796875 32.70703125 C-14.17129715 33.97971359 -14.17462555 35.25239594 -14.17805481 36.56364441 C-14.18312634 39.26129643 -14.18589465 41.95884778 -14.18530273 44.65649414 C-14.1852013 48.10647615 -14.19883294 51.55625147 -14.21607494 55.00618458 C-14.22989939 58.30229235 -14.22928467 61.59839842 -14.23046875 64.89453125 C-14.23765427 66.13112991 -14.24483978 67.36772858 -14.25224304 68.64179993 C-14.24916641 69.7961705 -14.24608978 70.95054108 -14.24291992 72.13989258 C-14.24505745 73.65973503 -14.24505745 73.65973503 -14.24723816 75.21028137 C-13.98344831 78.18676148 -13.3450516 80.33824658 -12 83 C-11.34 83.33 -10.68 83.66 -10 84 C-10.33 83.01 -10.66 82.02 -11 81 C-9.35 81 -7.7 81 -6 81 C-6 83.31 -6 85.62 -6 88 C-3.29120665 89.35439668 -0.99066732 89.06501451 2 89 C2 91.64 2 94.28 2 97 C3.98 97 5.96 97 8 97 C8.33 97.66 8.66 98.32 9 99 C8.67 99.66 8.34 100.32 8 101 C1.20911548 100.24984415 -2.68720378 97.03249943 -8 93 C-9.03125 92.278125 -10.0625 91.55625 -11.125 90.8125 C-20.0170121 83.07922035 -27.27076753 68.85750714 -28.14526367 57.03637695 C-28.33907077 39.5541434 -26.09166267 24.0143354 -13.44287109 10.7980957 C-9.26554872 6.67346145 -4.95803851 3.14842802 0 0 Z " fill="#665BE2" transform="translate(30,87)"/>
<path d="M0 0 C0.74765625 0.42152344 1.4953125 0.84304687 2.265625 1.27734375 C3.25046875 1.82519531 4.2353125 2.37304688 5.25 2.9375 C6.22453125 3.48277344 7.1990625 4.02804688 8.203125 4.58984375 C10.5653429 5.78085026 12.3885199 6.68733347 15 7 C18.11527486 5.58723927 18.11527486 5.58723927 21.25 3.5625 C22.32765625 2.90378906 23.4053125 2.24507813 24.515625 1.56640625 C25.74539062 0.79103516 25.74539062 0.79103516 27 0 C27.33 0.66 27.66 1.32 28 2 C27.360625 2.2475 26.72125 2.495 26.0625 2.75 C23.81258459 3.81562433 23.81258459 3.81562433 23.25 6.125 C23.1675 6.74375 23.085 7.3625 23 8 C21.68 8.33 20.36 8.66 19 9 C18.85726663 14.65998553 18.71485812 20.31997911 18.57275391 25.97998047 C18.52434123 27.90641502 18.47583896 29.83284733 18.42724609 31.75927734 C18.35751299 34.52440823 18.28809956 37.28954697 18.21875 40.0546875 C18.18593933 41.3516304 18.18593933 41.3516304 18.15246582 42.67477417 C18.04153579 46.83687248 18.04153579 46.83687248 18 51 C18 52.66666667 18 54.33333333 18 56 C19.65 56.33 21.3 56.66 23 57 C23.66 58.98 24.32 60.96 25 63 C20.47362373 61.3896546 16.57464567 59.05973334 12.5 56.5625 C11.52353516 55.96985352 11.52353516 55.96985352 10.52734375 55.36523438 C9.30559471 54.62354632 8.08476676 53.88033697 6.86523438 53.13500977 C4.93657366 51.87341229 4.93657366 51.87341229 2.3059082 51.05126953 C0 49 0 49 -0.43289185 46.83830261 C-0.58199961 43.87582019 -0.5607274 40.95371053 -0.48828125 37.98828125 C-0.48120651 36.90491989 -0.47413177 35.82155853 -0.46684265 34.70536804 C-0.43882254 31.24038038 -0.37606661 27.77700037 -0.3125 24.3125 C-0.28742714 21.9655181 -0.26461221 19.61851092 -0.24414062 17.27148438 C-0.18897099 11.5137731 -0.10526821 5.75700138 0 0 Z " fill="#7351DF" transform="translate(86,120)"/>
<path d="M0 0 C-1.10868317 2.21736634 -2.49440461 4.03617993 -4 6 C-2.68 6 -1.36 6 0 6 C0.08706892 9.27066566 0.14041241 12.54103365 0.1875 15.8125 C0.21263672 16.74126953 0.23777344 17.67003906 0.26367188 18.62695312 C0.27333984 19.51962891 0.28300781 20.41230469 0.29296875 21.33203125 C0.3086792 22.15421143 0.32438965 22.9763916 0.34057617 23.82348633 C-0.0818723 26.52321974 -0.8876546 27.32486612 -3 29 C-4.636028 29.93102909 -6.3063763 30.80339088 -8 31.625 C-9.299375 32.26308594 -9.299375 32.26308594 -10.625 32.9140625 C-13 34 -13 34 -16 35 C-16.33 35.99 -16.66 36.98 -17 38 C-19.97 38.495 -19.97 38.495 -23 39 C-24.44962183 36.10075634 -24.22126481 33.47699645 -24.31640625 30.2421875 C-24.33718735 29.57913605 -24.35796844 28.91608459 -24.37937927 28.23294067 C-24.44479231 26.11373306 -24.50372105 23.994401 -24.5625 21.875 C-24.60569309 20.43878919 -24.64930764 19.00259098 -24.69335938 17.56640625 C-24.80046499 14.04440406 -24.90175575 10.52226175 -25 7 C-23.23339445 6.19330591 -21.46639107 5.38748299 -19.69921875 4.58203125 C-18.22328247 3.90877808 -18.22328247 3.90877808 -16.7175293 3.22192383 C-10.78153505 0.55283289 -6.43746689 -0.22198162 0 0 Z " fill="#367CEF" transform="translate(96,8)"/>
<path d="M0 0 C0.99 0.33 1.98 0.66 3 1 C3.33 10.24 3.66 19.48 4 29 C5.65 29.33 7.3 29.66 9 30 C8.72285156 30.50789063 8.44570312 31.01578125 8.16015625 31.5390625 C7.79792969 32.22742187 7.43570313 32.91578125 7.0625 33.625 C6.70285156 34.29789063 6.34320313 34.97078125 5.97265625 35.6640625 C3.58359988 41.40163563 3.71898466 47.74694054 3.4375 53.875 C3.39431641 54.75414062 3.35113281 55.63328125 3.30664062 56.5390625 C3.20130661 58.69255797 3.10022351 60.84626064 3 63 C1.53775201 62.57576756 0.08026588 62.13509755 -1.375 61.6875 C-2.18710938 61.44386719 -2.99921875 61.20023438 -3.8359375 60.94921875 C-6 60 -6 60 -8 57 C-7.01 56.505 -7.01 56.505 -6 56 C-6.00523682 54.69329346 -6.01047363 53.38658691 -6.01586914 52.0402832 C-6.03398927 47.18547248 -6.04545768 42.33066474 -6.05493164 37.47583008 C-6.05995581 35.37589007 -6.06677625 33.27595354 -6.07543945 31.17602539 C-6.0875889 28.15510191 -6.09324753 25.13422474 -6.09765625 22.11328125 C-6.10281754 21.17664139 -6.10797882 20.24000153 -6.11329651 19.27497864 C-6.11365846 15.05539962 -6.08716646 11.11167108 -5 7 C-4.34 7 -3.68 7 -3 7 C-2.814375 5.824375 -2.814375 5.824375 -2.625 4.625 C-2 2 -2 2 0 0 Z " fill="#4770EB" transform="translate(69,16)"/>
<path d="M0 0 C0.33 0.66 0.66 1.32 1 2 C0.360625 2.2475 -0.27875 2.495 -0.9375 2.75 C-3.18741541 3.81562433 -3.18741541 3.81562433 -3.75 6.125 C-3.8325 6.74375 -3.915 7.3625 -4 8 C-5.32 8.33 -6.64 8.66 -8 9 C-8.14273337 14.65998553 -8.28514188 20.31997911 -8.42724609 25.97998047 C-8.47565877 27.90641502 -8.52416104 29.83284733 -8.57275391 31.75927734 C-8.64248701 34.52440823 -8.71190044 37.28954697 -8.78125 40.0546875 C-8.81406067 41.3516304 -8.81406067 41.3516304 -8.84753418 42.67477417 C-8.95846421 46.83687248 -8.95846421 46.83687248 -9 51 C-9 52.66666667 -9 54.33333333 -9 56 C-7.35 56.33 -5.7 56.66 -4 57 C-3.34 58.98 -2.68 60.96 -2 63 C-5.69876091 61.62712658 -8.9514476 59.93644547 -12.3125 57.875 C-13.19550781 57.33617187 -14.07851562 56.79734375 -14.98828125 56.2421875 C-15.65214844 55.83226562 -16.31601563 55.42234375 -17 55 C-15.515 54.505 -15.515 54.505 -14 54 C-14 53.34 -14 52.68 -14 52 C-14.99 51.67 -15.98 51.34 -17 51 C-16.505 50.505 -16.505 50.505 -16 50 C-16.66 49.34 -17.32 48.68 -18 48 C-18.10467436 44.98258199 -18.08868812 42.06580588 -17.9765625 39.0546875 C-17.95153656 38.1696756 -17.92651062 37.2846637 -17.90072632 36.37283325 C-17.81840545 33.53983944 -17.72186323 30.70753032 -17.625 27.875 C-17.56677276 25.95705942 -17.50946923 24.03909057 -17.453125 22.12109375 C-17.31280872 17.4136671 -17.15973467 12.70680614 -17 8 C-16.38081192 7.7995256 -15.76162384 7.59905121 -15.12367249 7.39250183 C-13.90628639 6.99361504 -13.90628639 6.99361504 -12.66430664 6.58666992 C-11.85949356 6.32432053 -11.05468048 6.06197113 -10.22547913 5.79167175 C-7.73375765 4.90528936 -5.63035131 3.78769088 -3.4375 2.3125 C-2.77621094 1.87550781 -2.11492187 1.43851562 -1.43359375 0.98828125 C-0.96050781 0.66214844 -0.48742187 0.33601563 0 0 Z " fill="#5F61E4" transform="translate(113,120)"/>
<path d="M0 0 C20.49368207 9.8997084 20.49368207 9.8997084 27 15 C27 15.66 27 16.32 27 17 C24.91796875 18.47265625 24.91796875 18.47265625 22.1875 20.0625 C21.29417969 20.58972656 20.40085937 21.11695312 19.48046875 21.66015625 C17 23 17 23 14 24 C14 29.28 14 34.56 14 40 C10.47107553 38.58843021 7.45137797 37.22615467 4.1875 35.375 C3.00220703 34.70597656 3.00220703 34.70597656 1.79296875 34.0234375 C1.20128906 33.68570313 0.60960938 33.34796875 0 33 C0 32.67 0 32.34 0 32 C2.97 32 5.94 32 9 32 C8.9278125 30.84242187 8.855625 29.68484375 8.78125 28.4921875 C8.68740508 26.95313078 8.59366039 25.41406796 8.5 23.875 C8.45230469 23.11445312 8.40460938 22.35390625 8.35546875 21.5703125 C8.10215228 17.3724967 7.94622378 13.20798902 8 9 C5.29120665 7.64560332 2.99066732 7.93498549 0 8 C0 5.36 0 2.72 0 0 Z " fill="#11D7E6" transform="translate(72,80)"/>
<path d="M0 0 C-1.10868317 2.21736634 -2.49440461 4.03617993 -4 6 C-2.68 6 -1.36 6 0 6 C0.08706892 9.27066566 0.14041241 12.54103365 0.1875 15.8125 C0.21263672 16.74126953 0.23777344 17.67003906 0.26367188 18.62695312 C0.27333984 19.51962891 0.28300781 20.41230469 0.29296875 21.33203125 C0.3086792 22.15421143 0.32438965 22.9763916 0.34057617 23.82348633 C-0.07949307 26.50801482 -0.86431772 27.37231982 -3 29 C-5.72507798 29.39078556 -8.23121956 29.13616953 -11 29 C-10.01 28.01 -9.02 27.02 -8 26 C-10.64 25.34 -13.28 24.68 -16 24 C-16.05397335 21.5622037 -16.09365616 19.12560315 -16.125 16.6875 C-16.14175781 15.99720703 -16.15851563 15.30691406 -16.17578125 14.59570312 C-16.21217794 10.82864604 -16.14378864 9.21568296 -14 6 C-14.66 5.34 -15.32 4.68 -16 4 C-13.69 4.33 -11.38 4.66 -9 5 C-9 4.01 -9 3.02 -9 2 C-5.62902617 0.50178941 -3.79557881 0 0 0 Z M-15 25 C-14.67 25.66 -14.34 26.32 -14 27 C-14.66 26.67 -15.32 26.34 -16 26 C-15.67 25.67 -15.34 25.34 -15 25 Z " fill="#1A90F7" transform="translate(96,8)"/>
<path d="M0 0 C1.98 0 3.96 0 6 0 C6 0.66 6 1.32 6 2 C6.66 2.33 7.32 2.66 8 3 C7.60167969 3.47308594 7.20335937 3.94617188 6.79296875 4.43359375 C1.27262421 11.32395081 -1.80284649 18.0081193 -1 27 C0.25796232 35.83679704 4.29451823 41.3436046 10 48 C6.7 48 3.4 48 0 48 C0 45.69 0 43.38 0 41 C-1.98 40.67 -3.96 40.34 -6 40 C-6 39.34 -6 38.68 -6 38 C-6.66 38.66 -7.32 39.32 -8 40 C-8 31.42 -8 22.84 -8 14 C-7.34 14 -6.68 14 -6 14 C-6 13.34 -6 12.68 -6 12 C-5.34 12 -4.68 12 -4 12 C-4.33 10.68 -4.66 9.36 -5 8 C-3.35 8 -1.7 8 0 8 C0 5.36 0 2.72 0 0 Z " fill="#3A79EF" transform="translate(32,112)"/>
<path d="M0 0 C1.67542976 0.28604898 3.34385343 0.61781233 5 1 C5 1.99 5 2.98 5 4 C2.525 3.505 2.525 3.505 0 3 C-1.96458792 6.29264352 -2.24657267 8.76157829 -2.23046875 12.5703125 C-2.22756836 14.16166016 -2.22756836 14.16166016 -2.22460938 15.78515625 C-2.21236328 16.88730469 -2.20011719 17.98945312 -2.1875 19.125 C-2.18685547 20.23488281 -2.18621094 21.34476563 -2.18554688 22.48828125 C-2.40967731 27.91468022 -2.40967731 27.91468022 -1 33 C-3.31 33.99 -5.62 34.98 -8 36 C-8 30.72 -8 25.44 -8 20 C-9.32 19.34 -10.64 18.68 -12 18 C-13.58753149 17.13264008 -15.1708239 16.25748076 -16.75 15.375 C-17.54921875 14.92898437 -18.3484375 14.48296875 -19.171875 14.0234375 C-19.77515625 13.68570313 -20.3784375 13.34796875 -21 13 C-21 12.34 -21 11.68 -21 11 C-19.0051234 9.56008907 -17.03713554 8.26944011 -14.9375 7 C-14.37611328 6.64421875 -13.81472656 6.2884375 -13.23632812 5.921875 C-9.20234095 3.45076971 -5.52018932 2.173782 -1 1 C-0.67 0.67 -0.34 0.34 0 0 Z " fill="#0CB6F3" transform="translate(122,84)"/>
<path d="M0 0 C0.99 0 1.98 0 3 0 C4.13549767 2.1616961 5.25828972 4.3286189 6.375 6.5 C6.69210938 7.10070313 7.00921875 7.70140625 7.3359375 8.3203125 C7.6453125 8.92617188 7.9546875 9.53203125 8.2734375 10.15625 C8.55622559 10.70087891 8.83901367 11.24550781 9.13037109 11.80664062 C11.84331662 18.64917365 12.27876659 24.91714292 12.1953125 32.1875 C12.1924826 33.13061035 12.18965271 34.0737207 12.18673706 35.04541016 C12.17562442 38.03040756 12.15053672 41.01509469 12.125 44 C12.11495866 46.03515189 12.10583484 48.07030852 12.09765625 50.10546875 C12.07571435 55.07043037 12.04124673 60.03516275 12 65 C10.37750059 65.83819158 8.75191503 66.6704116 7.125 67.5 C5.76761719 68.19609375 5.76761719 68.19609375 4.3828125 68.90625 C2 70 2 70 0 70 C0 68.02 0 66.04 0 64 C2.97 64 5.94 64 9 64 C8.9278125 63.21625 8.855625 62.4325 8.78125 61.625 C7.60350956 46.44523432 7.91003276 31.21415246 8 16 C5.36 16 2.72 16 0 16 C0 10.66666667 0 5.33333333 0 0 Z " fill="#29EED7" transform="translate(144,32)"/>
<path d="M0 0 C0 5.28 0 10.56 0 16 C1.65 16.66 3.3 17.32 5 18 C6.45927798 18.79458068 7.89886541 19.62679445 9.3125 20.5 C10.00988281 20.9228125 10.70726562 21.345625 11.42578125 21.78125 C12.20501953 22.38453125 12.20501953 22.38453125 13 23 C13 23.66 13 24.32 13 25 C11.54462432 25.83848804 10.08559627 26.67063934 8.625 27.5 C7.81289062 27.9640625 7.00078125 28.428125 6.1640625 28.90625 C4 30 4 30 2 30 C2 27.69 2 25.38 2 23 C0.68 23 -0.64 23 -2 23 C-2 22.34 -2 21.68 -2 21 C-1.34 21 -0.68 21 0 21 C0 20.34 0 19.68 0 19 C-0.99 19 -1.98 19 -3 19 C-3.33 20.32 -3.66 21.64 -4 23 C-4.66 23 -5.32 23 -6 23 C-6.19412181 21.52168779 -6.38012131 20.04230684 -6.5625 18.5625 C-6.66691406 17.73878906 -6.77132812 16.91507813 -6.87890625 16.06640625 C-6.91886719 15.38449219 -6.95882812 14.70257813 -7 14 C-6.67 13.67 -6.34 13.34 -6 13 C-5.95936168 11.33382885 -5.957279 9.66611905 -6 8 C-9.63933044 8.37517691 -9.63933044 8.37517691 -12.3125 10.625 C-14 12 -14 12 -15.9609375 11.97265625 C-17.98338206 11.71364142 -19.99340129 11.36184567 -22 11 C-18.17836606 8.45224404 -14.12794145 6.55391618 -10.0078125 4.53515625 C-6.99951456 3.04913292 -6.99951456 3.04913292 -4.2421875 1.30859375 C-2 0 -2 0 0 0 Z " fill="#10D8E7" transform="translate(86,153)"/>
<path d="M0 0 C1.32 0.33 2.64 0.66 4 1 C3.9278125 1.83144531 3.855625 2.66289063 3.78125 3.51953125 C3.64203125 5.14955078 3.64203125 5.14955078 3.5 6.8125 C3.36078125 8.43091797 3.36078125 8.43091797 3.21875 10.08203125 C2.96262162 13.01090811 2.96262162 13.01090811 3 16 C3 19.66666667 3 23.33333333 3 27 C2.34 26.67 1.68 26.34 1 26 C1 25.01 1 24.02 1 23 C1 24.32 1 25.64 1 27 C-0.32 27.33 -1.64 27.66 -3 28 C-3 27.34 -3 26.68 -3 26 C-3.515625 25.9175 -4.03125 25.835 -4.5625 25.75 C-8.04455732 24.67859775 -10.87200885 22.86476395 -14 21 C-13.67 20.34 -13.34 19.68 -13 19 C-12.34 19 -11.68 19 -11 19 C-11 18.34 -11 17.68 -11 17 C-10.37351563 16.86207031 -9.74703125 16.72414063 -9.1015625 16.58203125 C-6.24299662 15.69380179 -4.32632171 14.90954012 -2 13 C-0.5829059 8.70625795 -0.20170665 4.50261286 0 0 Z " fill="#06B9F3" transform="translate(157,84)"/>
<path d="M0 0 C6.90687928 9.20917237 7.22699799 21.84452147 6 33 C3.56416773 44.43583227 3.56416773 44.43583227 0 48 C0 32.16 0 16.32 0 0 Z " fill="#1FF0D9" transform="translate(192,112)"/>
<path d="M0 0 C0.99 0.33 1.98 0.66 3 1 C3.16834933 2.77067416 3.33461909 4.54154612 3.5 6.3125 C3.5928125 7.29863281 3.685625 8.28476563 3.78125 9.30078125 C3.99018897 11.87893887 4 14.41541585 4 17 C3.34 17 2.68 17 2 17 C2.144375 17.67804688 2.28875 18.35609375 2.4375 19.0546875 C3.715597 25.46292384 4.25489093 31.47196016 4 38 C3.01 38.495 3.01 38.495 2 39 C-3.40231573 26.70008473 -3.8116642 12.86436667 0 0 Z " fill="#7552E1" transform="translate(4,119)"/>
<path d="M0 0 C11.4276194 5.51055165 11.4276194 5.51055165 16 9 C16 9.66 16 10.32 16 11 C13.91796875 12.47265625 13.91796875 12.47265625 11.1875 14.0625 C10.29417969 14.58972656 9.40085937 15.11695312 8.48046875 15.66015625 C6 17 6 17 3 18 C3 23.28 3 28.56 3 34 C-0.52892447 32.58843021 -3.54862203 31.22615467 -6.8125 29.375 C-7.60269531 28.92898437 -8.39289063 28.48296875 -9.20703125 28.0234375 C-9.79871094 27.68570313 -10.39039062 27.34796875 -11 27 C-11 26.67 -11 26.34 -11 26 C-8.03 26 -5.06 26 -2 26 C-1.34 27.32 -0.68 28.64 0 30 C-0.06960937 29.18015625 -0.13921875 28.3603125 -0.2109375 27.515625 C-0.37482298 24.25352363 -0.43683383 21.23949051 0 18 C2.9375 15.4375 2.9375 15.4375 6 14 C6.33 13.01 6.66 12.02 7 11 C8.32 11 9.64 11 11 11 C10.67 10.34 10.34 9.68 10 9 C8.68 9 7.36 9 6 9 C5.896875 8.360625 5.79375 7.72125 5.6875 7.0625 C5.460625 6.381875 5.23375 5.70125 5 5 C4.01 4.67 3.02 4.34 2 4 C2 3.34 2 2.68 2 2 C1.34 2 0.68 2 0 2 C0 1.34 0 0.68 0 0 Z " fill="#11DCE3" transform="translate(83,86)"/>
<path d="M0 0 C1 3 1 3 1 10 C-9.56 10 -20.12 10 -31 10 C-31 9.01 -31 8.02 -31 7 C-27.71677918 5.93424246 -24.53836 5.88919424 -21.10913086 5.81030273 C-13.03004257 5.59223533 -6.89602421 4.59170162 0 0 Z " fill="#12AFF6" transform="translate(159,158)"/>
<path d="M0 0 C2.78545622 1.52536888 5.35695191 3.23796794 8 5 C8 5.66 8 6.32 8 7 C7.34 7 6.68 7 6 7 C6 6.34 6 5.68 6 5 C5.01 5.33 4.02 5.66 3 6 C1 6 -1 6 -3 6 C-6.14707498 6.31148524 -9.07637767 6.76418312 -12 8 C-13.69165301 10.98283157 -13.69165301 10.98283157 -14 14 C-16.31 14.33 -18.62 14.66 -21 15 C-20.01 14.67 -19.02 14.34 -18 14 C-18 13.34 -18 12.68 -18 12 C-19.32 11.67 -20.64 11.34 -22 11 C-20.68 10.34 -19.36 9.68 -18 9 C-18.33 8.34 -18.66 7.68 -19 7 C-18.2678125 6.73574219 -17.535625 6.47148438 -16.78125 6.19921875 C-13.2088805 4.65888527 -10.37788688 2.47246073 -7.28125 0.14453125 C-4.3755318 -1.31330339 -3.04765755 -0.97924734 0 0 Z " fill="#0BA6F8" transform="translate(61,73)"/>
<path d="M0 0 C1.65 0 3.3 0 5 0 C5 2.31 5 4.62 5 7 C7.70879335 8.35439668 10.00933268 8.06501451 13 8 C13 10.64 13 13.28 13 16 C14.98 16 16.96 16 19 16 C19.33 16.66 19.66 17.32 20 18 C19.67 18.66 19.34 19.32 19 20 C14.32289462 19.50083524 11.52420409 18.34684381 7.75 15.5625 C6.89921875 14.94503906 6.0484375 14.32757813 5.171875 13.69140625 C3 12 3 12 1 10 C1 9.01 1 8.02 1 7 C0.34 7 -0.32 7 -1 7 C-1.33 6.01 -1.66 5.02 -2 4 C-1.34 4 -0.68 4 0 4 C0 2.68 0 1.36 0 0 Z " fill="#368AF0" transform="translate(19,168)"/>
<path d="M0 0 C2.31 0 4.62 0 7 0 C5.78065514 4.03321763 4.44045073 7.54269479 2 11 C1.34 11 0.68 11 0 11 C-0.226875 11.556875 -0.45375 12.11375 -0.6875 12.6875 C-2.37550036 15.66159588 -4.46676517 17.72008865 -7 20 C-7.66 20 -8.32 20 -9 20 C-8.67 17.69 -8.34 15.38 -8 13 C-7.34 13 -6.68 13 -6 13 C-6 12.34 -6 11.68 -6 11 C-6.99 11.33 -7.98 11.66 -9 12 C-8.34 10.68 -7.68 9.36 -7 8 C-5.02 8 -3.04 8 -1 8 C-0.67 5.36 -0.34 2.72 0 0 Z " fill="#17E7E0" transform="translate(185,160)"/>
<path d="M0 0 C0.99 0.33 1.98 0.66 3 1 C4.05404945 4.98196457 3.84098656 7.98195309 3 12 C2.34 12 1.68 12 1 12 C1 12.66 1 13.32 1 14 C-0.32 14.33 -1.64 14.66 -3 15 C-3.66 18.3 -4.32 21.6 -5 25 C-5.99 25 -6.98 25 -8 25 C-7.54734394 16.09776412 -4.97562672 7.46344008 0 0 Z " fill="#6B55E0" transform="translate(52,34)"/>
<path d="M0 0 C0.66 0.33 1.32 0.66 2 1 C2 3.64 2 6.28 2 9 C-0.31 9.33 -2.62 9.66 -5 10 C-5.33 12.31 -5.66 14.62 -6 17 C-9.96 17.495 -9.96 17.495 -14 18 C-14 13.40099155 -12.38253249 10.38253249 -9.125 7.125 C-6.18587932 4.53165823 -3.26418917 2.17612611 0 0 Z " fill="#5168EA" transform="translate(30,87)"/>
<path d="M0 0 C7.83371025 3.37506791 14.37233746 11.39831518 18 19 C18 19.66 18 20.32 18 21 C15.36 21 12.72 21 10 21 C10 18.36 10 15.72 10 13 C9.4225 12.9175 8.845 12.835 8.25 12.75 C5.28430694 11.76143565 3.99316373 10.39179647 2 8 C0.55524605 5.03825439 0 3.31266447 0 0 Z " fill="#14E5E3" transform="translate(174,91)"/>
<path d="M0 0 C7.26 0 14.52 0 22 0 C17.80505413 3.35595669 15.8279882 4.69814665 11 6.25 C9.989375 6.58515625 8.97875 6.9203125 7.9375 7.265625 C5.15037843 7.96240539 2.85582504 8.14699099 0 8 C0 5.36 0 2.72 0 0 Z " fill="#0AC1EE" transform="translate(64,184)"/>
<path d="M0 0 C0.33 0 0.66 0 1 0 C1.06058594 1.27617188 1.12117187 2.55234375 1.18359375 3.8671875 C1.26799568 5.53647016 1.35264386 7.20574037 1.4375 8.875 C1.47681641 9.71675781 1.51613281 10.55851562 1.55664062 11.42578125 C1.61948242 12.63427734 1.61948242 12.63427734 1.68359375 13.8671875 C1.72025146 14.61081543 1.75690918 15.35444336 1.79467773 16.12060547 C1.89955865 18.08864312 1.89955865 18.08864312 3 20 C3.0716735 22.55157655 3.09308442 25.07472971 3.0625 27.625 C3.05798828 28.33140625 3.05347656 29.0378125 3.04882812 29.765625 C3.03703875 31.51045275 3.01910324 33.255237 3 35 C1.37750059 35.83819158 -0.24808497 36.6704116 -1.875 37.5 C-2.77992188 37.9640625 -3.68484375 38.428125 -4.6171875 38.90625 C-7 40 -7 40 -9 40 C-9 38.02 -9 36.04 -9 34 C-6.03 34 -3.06 34 0 34 C-0.08378906 33.05382812 -0.16757813 32.10765625 -0.25390625 31.1328125 C-1.09081077 20.65610699 -0.78787297 10.47264988 0 0 Z " fill="#15F4D7" transform="translate(153,62)"/>
<path d="M0 0 C0 1.32 0 2.64 0 4 C-0.66 4 -1.32 4 -2 4 C-2.33 4.99 -2.66 5.98 -3 7 C-3.33 6.34 -3.66 5.68 -4 5 C-5.94840327 4.56320918 -5.94840327 4.56320918 -8.3125 4.4375 C-9.20710938 4.36273438 -10.10171875 4.28796875 -11.0234375 4.2109375 C-13.09073777 4.06443591 -15.15849241 3.92426321 -17.2265625 3.7890625 C-18.28617188 3.71429688 -19.34578125 3.63953125 -20.4375 3.5625 C-21.42621094 3.50191406 -22.41492188 3.44132812 -23.43359375 3.37890625 C-26 3 -26 3 -29 1 C-8.35374868 -2.78458289 -8.35374868 -2.78458289 0 0 Z " fill="#18B1EF" transform="translate(120,33)"/>
<path d="M0 0 C1.65161581 0.75836443 3.29617138 1.53212076 4.9375 2.3125 C5.85402344 2.74175781 6.77054688 3.17101562 7.71484375 3.61328125 C10 5 10 5 11 8 C9.54462432 8.83848804 8.08559627 9.67063934 6.625 10.5 C5.81289062 10.9640625 5.00078125 11.428125 4.1640625 11.90625 C2 13 2 13 0 13 C0 10.69 0 8.38 0 6 C-1.32 6 -2.64 6 -4 6 C-4 5.34 -4 4.68 -4 4 C-3.34 4 -2.68 4 -2 4 C-2 3.34 -2 2.68 -2 2 C-1.34 2 -0.68 2 0 2 C0 1.34 0 0.68 0 0 Z " fill="#1BE0E3" transform="translate(88,170)"/>
<path d="M0 0 C0 2.31 0 4.62 0 7 C-1.60495567 6.88557539 -3.20898119 6.75805306 -4.8125 6.625 C-5.70582031 6.55539063 -6.59914062 6.48578125 -7.51953125 6.4140625 C-10 6 -10 6 -13 4 C-13 3.34 -13 2.68 -13 2 C-13.99 2 -14.98 2 -16 2 C-16 1.34 -16 0.68 -16 0 C-11.22168164 -2.38915918 -5.07729403 -0.82894596 0 0 Z " fill="#388FEE" transform="translate(136,185)"/>
<path d="M0 0 C0.66 0.33 1.32 0.66 2 1 C0.14327602 7.60168525 -5.02426064 13.07502524 -10.8125 16.5625 C-11.864375 17.036875 -12.91625 17.51125 -14 18 C-14.66 17.67 -15.32 17.34 -16 17 C-15.525625 16.5875 -15.05125 16.175 -14.5625 15.75 C-12.80314207 13.77951911 -12.55492455 12.53679793 -12 10 C-11.34 9.01 -10.68 8.02 -10 7 C-7.375 6.8125 -7.375 6.8125 -5 7 C-4.54625 6.030625 -4.0925 5.06125 -3.625 4.0625 C-2 1 -2 1 0 0 Z " fill="#F1F8F7" transform="translate(166,145)"/>
<path d="M0 0 C4.29 0 8.58 0 13 0 C13 1.32 13 2.64 13 4 C6.89194023 7.28895526 1.84893235 8.23617008 -5 8 C-4.67 6.68 -4.34 5.36 -4 4 C-3.67 4.66 -3.34 5.32 -3 6 C-2.34 6 -1.68 6 -1 6 C-0.67 4.02 -0.34 2.04 0 0 Z " fill="#0EB1F2" transform="translate(149,184)"/>
<path d="M0 0 C0.33 0.66 0.66 1.32 1 2 C2.33076989 2.34342449 3.66431979 2.67619874 5 3 C5.66 3.66 6.32 4.32 7 5 C6.34 5 5.68 5 5 5 C5 5.66 5 6.32 5 7 C6.32 6.67 7.64 6.34 9 6 C9.33 6.99 9.66 7.98 10 9 C8.68 9.33 7.36 9.66 6 10 C6.33 10.66 6.66 11.32 7 12 C4.69 13.32 2.38 14.64 0 16 C0 19.96 0 23.92 0 28 C-0.66 28.33 -1.32 28.66 -2 29 C-2.66 28.34 -3.32 27.68 -4 27 C-3.34 27 -2.68 27 -2 27 C-2.04640625 26.09636719 -2.0928125 25.19273438 -2.140625 24.26171875 C-2.17671875 23.08222656 -2.2128125 21.90273437 -2.25 20.6875 C-2.29640625 19.51574219 -2.3428125 18.34398437 -2.390625 17.13671875 C-2 14 -2 14 -0.109375 12.08203125 C2 11 2 11 4 11 C4 10.34 4 9.68 4 9 C2.35 8.67 0.7 8.34 -1 8 C-1 7.67 -1 7.34 -1 7 C0.65 7 2.3 7 4 7 C4 6.34 4 5.68 4 5 C1.525 4.01 1.525 4.01 -1 3 C-0.67 2.01 -0.34 1.02 0 0 Z " fill="#0AE5E1" transform="translate(84,88)"/>
<path d="M0 0 C1.98 0 3.96 0 6 0 C6 0.66 6 1.32 6 2 C6.66 2.33 7.32 2.66 8 3 C7.60167969 3.47308594 7.20335937 3.94617188 6.79296875 4.43359375 C2.84289641 9.36397602 0.60963524 13.90032961 -1 20 C-1.33 20 -1.66 20 -2 20 C-2.33 16.04 -2.66 12.08 -3 8 C-2.01 8 -1.02 8 0 8 C0 5.36 0 2.72 0 0 Z " fill="#4A85EB" transform="translate(32,112)"/>
<path d="M0 0 C1.99990019 3.31766008 2.20458689 5.69397419 2.046875 9.53515625 C2.00433594 10.59154297 1.96179688 11.64792969 1.91796875 12.73632812 C1.86253906 13.83396484 1.80710937 14.93160156 1.75 16.0625 C1.71003906 17.16400391 1.67007812 18.26550781 1.62890625 19.40039062 C1.25763331 27.61355003 1.25763331 27.61355003 -1 31 C-2.19385114 26.73369407 -2.19109912 22.71692434 -2.1875 18.3125 C-2.18814453 17.50828613 -2.18878906 16.70407227 -2.18945312 15.87548828 C-2.13995245 10.32128778 -1.58510961 5.34974493 0 0 Z " fill="#805BD6" transform="translate(4,119)"/>
<path d="M0 0 C0.763125 0.20625 1.52625 0.4125 2.3125 0.625 C2.3125 1.615 2.3125 2.605 2.3125 3.625 C3.47061388 2.57229537 3.47061388 2.57229537 4.3125 0.625 C8.13234796 -0.15311718 10.58090331 -0.61886556 14.3125 0.625 C13.10793917 4.23868248 11.51294005 5.19820948 8.2109375 6.95703125 C6.3125 7.625 6.3125 7.625 3.25 7.125 C0.08508127 5.50887129 -2.79677862 3.68980099 -5.6875 1.625 C-2.6875 -0.375 -2.6875 -0.375 0 0 Z " fill="#F8FAF9" transform="translate(94.6875,120.375)"/>
<path d="M0 0 C11.4276194 5.51055165 11.4276194 5.51055165 16 9 C16 9.66 16 10.32 16 11 C13.953125 12.47265625 13.953125 12.47265625 11.25 14.0625 C9.92742187 14.85333984 9.92742187 14.85333984 8.578125 15.66015625 C6.3302023 16.82839487 4.47179076 17.53220782 2 18 C2 17.34 2 16.68 2 16 C2.9590625 15.5978125 2.9590625 15.5978125 3.9375 15.1875 C6.33131686 14.11332248 6.33131686 14.11332248 7 11 C8.32 11 9.64 11 11 11 C10.67 10.34 10.34 9.68 10 9 C8.68 9 7.36 9 6 9 C5.896875 8.360625 5.79375 7.72125 5.6875 7.0625 C5.3471875 6.0415625 5.3471875 6.0415625 5 5 C4.01 4.67 3.02 4.34 2 4 C2 3.34 2 2.68 2 2 C1.34 2 0.68 2 0 2 C0 1.34 0 0.68 0 0 Z " fill="#2FE6D8" transform="translate(83,86)"/>
<path d="M0 0 C0.66 0 1.32 0 2 0 C2 0.66 2 1.32 2 2 C2.99 2.33 3.98 2.66 5 3 C4.01 3.33 3.02 3.66 2 4 C4.19138979 6.35729943 6.43931973 8.02057098 9.1875 9.6875 C9.90292969 10.12449219 10.61835937 10.56148437 11.35546875 11.01171875 C11.89816406 11.33785156 12.44085938 11.66398437 13 12 C10.24921116 12.91692961 8.64051087 13.10886083 5.8125 13.0625 C3.9253125 13.0315625 3.9253125 13.0315625 2 13 C2 11.35 2 9.7 2 8 C0.68 7.34 -0.64 6.68 -2 6 C-1.34 6 -0.68 6 0 6 C0 5.34 0 4.68 0 4 C-2.475 3.01 -2.475 3.01 -5 2 C-4.360625 1.855625 -3.72125 1.71125 -3.0625 1.5625 C-1.02454854 1.18992819 -1.02454854 1.18992819 0 0 Z " fill="#EFF5F5" transform="translate(99,91)"/>
<path d="M0 0 C3.62532066 0.13847638 7.25015904 0.28702643 10.875 0.4375 C12.42380859 0.49647461 12.42380859 0.49647461 14.00390625 0.55664062 C14.99003906 0.59853516 15.97617187 0.64042969 16.9921875 0.68359375 C17.90339355 0.72025146 18.81459961 0.75690918 19.75341797 0.79467773 C22 1 22 1 24 2 C24 2.99 24 3.98 24 5 C21.89590361 5.02701408 19.79170822 5.04640223 17.6875 5.0625 C16.51574219 5.07410156 15.34398437 5.08570313 14.13671875 5.09765625 C11 5 11 5 8 4 C8 3.34 8 2.68 8 2 C5.36 2 2.72 2 0 2 C0 1.34 0 0.68 0 0 Z " fill="#13B1EE" transform="translate(48,163)"/>
<path d="M0 0 C0.33 0 0.66 0 1 0 C1.09796875 0.58007812 1.1959375 1.16015625 1.296875 1.7578125 C2.83771593 9.80737803 6.76178892 14.88875373 12 21 C8.7 21 5.4 21 2 21 C2.04125 19.783125 2.0825 18.56625 2.125 17.3125 C2.13448537 14.60442684 2.01948031 13.04870078 1 10.5 C-0.4340643 6.91483924 -0.13036833 3.84586583 0 0 Z " fill="#2B81EE" transform="translate(30,139)"/>
<path d="M0 0 C0.66 0 1.32 0 2 0 C2.33 1.32 2.66 2.64 3 4 C4.98 3.67 6.96 3.34 9 3 C9.33 4.65 9.66 6.3 10 8 C8.68 7.01 7.36 6.02 6 5 C6.33 6.32 6.66 7.64 7 9 C7.66 9 8.32 9 9 9 C8.34 10.32 7.68 11.64 7 13 C6.34 12.29875 5.68 11.5975 5 10.875 C1.65014059 7.50583305 -2.15652564 4.77531275 -6 2 C-4.0625 1.4375 -4.0625 1.4375 -2 1 C-1.67 1.33 -1.34 1.66 -1 2 C-0.67 1.34 -0.34 0.68 0 0 Z " fill="#11C4E8" transform="translate(118,37)"/>
<path d="M0 0 C2.875 -0.125 2.875 -0.125 6 0 C6.66 0.66 7.32 1.32 8 2 C7.01 2.33 6.02 2.66 5 3 C5.99 3.66 6.98 4.32 8 5 C6.71186658 5.83878455 5.41936744 6.67086783 4.125 7.5 C3.40570313 7.9640625 2.68640625 8.428125 1.9453125 8.90625 C0 10 0 10 -2 10 C-2.33 10.99 -2.66 11.98 -3 13 C-3.33 11.68 -3.66 10.36 -4 9 C-3.34 9 -2.68 9 -2 9 C-2 6.69 -2 4.38 -2 2 C-1.34 2 -0.68 2 0 2 C0 1.34 0 0.68 0 0 Z " fill="#318AED" transform="translate(82,33)"/>
<path d="M0 0 C0 0.66 0 1.32 0 2 C-0.99 2 -1.98 2 -3 2 C-3 2.66 -3 3.32 -3 4 C-1.68 4.33 -0.36 4.66 1 5 C-1.31 5.33 -3.62 5.66 -6 6 C-6.33 16.56 -6.66 27.12 -7 38 C-7.33 38 -7.66 38 -8 38 C-8 27.44 -8 16.88 -8 6 C-8.99 5.67 -9.98 5.34 -11 5 C-9.54462432 4.16151196 -8.08559627 3.32936066 -6.625 2.5 C-5.81289062 2.0359375 -5.00078125 1.571875 -4.1640625 1.09375 C-2 0 -2 0 0 0 Z " fill="#EFFEF7" transform="translate(126,114)"/>
<path d="M0 0 C0 2.64 0 5.28 0 8 C1.32 8.66 2.64 9.32 4 10 C4 10.66 4 11.32 4 12 C3.34 12 2.68 12 2 12 C2 11.34 2 10.68 2 10 C1.484375 9.9175 0.96875 9.835 0.4375 9.75 C-3.04455732 8.67859775 -5.87200885 6.86476395 -9 5 C-8.67 4.34 -8.34 3.68 -8 3 C-7.34 3 -6.68 3 -6 3 C-6 2.34 -6 1.68 -6 1 C-4 0 -4 0 0 0 Z " fill="#13B0F1" transform="translate(152,100)"/>
<path d="M0 0 C1.65 0 3.3 0 5 0 C5 0.66 5 1.32 5 2 C6.32 2 7.64 2 9 2 C9.66 3.32 10.32 4.64 11 6 C8.1875 7.125 8.1875 7.125 5 8 C4.01 7.34 3.02 6.68 2 6 C1.34 6 0.68 6 0 6 C0 4.02 0 2.04 0 0 Z " fill="#0CABF8" transform="translate(104,8)"/>
<path d="M0 0 C0.66 0.33 1.32 0.66 2 1 C2 3.64 2 6.28 2 9 C-0.64 9.33 -3.28 9.66 -6 10 C-6 6 -6 6 -3.5625 3.3125 C-2.716875 2.549375 -1.87125 1.78625 -1 1 C-0.67 0.67 -0.34 0.34 0 0 Z " fill="#417CEB" transform="translate(30,87)"/>
<path d="M0 0 C1.093125 0.185625 2.18625 0.37125 3.3125 0.5625 C6.93624133 1.2578068 6.93624133 1.2578068 10 0 C12 2 12 2 12.125 5.125 C12.08375 6.07375 12.0425 7.0225 12 8 C7.1725201 6.58707905 3.2837641 4.57025846 -1 2 C-0.67 1.34 -0.34 0.68 0 0 Z " fill="#F1F7F8" transform="translate(76,80)"/>
<path d="M0 0 C0.99 0 1.98 0 3 0 C4.84181137 3.68362274 4.49936743 7.97911941 4 12 C2 14.625 2 14.625 0 16 C0 10.66666667 0 5.33333333 0 0 Z " fill="#14E9E0" transform="translate(144,32)"/>
<path d="M0 0 C1.65 0 3.3 0 5 0 C4.95875 1.093125 4.9175 2.18625 4.875 3.3125 C4.67925334 7.08892229 4.67925334 7.08892229 7 10 C5.02 10.99 5.02 10.99 3 12 C2.34 11.34 1.68 10.68 1 10 C1 9.01 1 8.02 1 7 C0.34 7 -0.32 7 -1 7 C-1.33 6.01 -1.66 5.02 -2 4 C-1.34 4 -0.68 4 0 4 C0 2.68 0 1.36 0 0 Z " fill="#4D6DE9" transform="translate(19,168)"/>
<path d="M0 0 C3.63 0 7.26 0 11 0 C11 2.31 11 4.62 11 7 C6.4923533 6.46968862 3.58045212 4.74778884 0 2 C0 1.34 0 0.68 0 0 Z " fill="#13C1EC" transform="translate(61,104)"/>
<path d="M0 0 C-1.65 0.66 -3.3 1.32 -5 2 C-4.67 2.99 -4.34 3.98 -4 5 C-4.99 5 -5.98 5 -7 5 C-7.61875 5.515625 -8.2375 6.03125 -8.875 6.5625 C-11 8 -11 8 -13.75 7.6875 C-14.4925 7.460625 -15.235 7.23375 -16 7 C-16.33 6.01 -16.66 5.02 -17 4 C-14.92227529 3.13227971 -12.83756823 2.28126381 -10.75 1.4375 C-9.58984375 0.96183594 -8.4296875 0.48617188 -7.234375 -0.00390625 C-4.13733356 -0.95770524 -2.92678299 -1.20983356 0 0 Z " fill="#3E89EB" transform="translate(92,9)"/>
<path d="M0 0 C2.625 1.375 2.625 1.375 3.625 3.375 C2.965 3.375 2.305 3.375 1.625 3.375 C1.295 4.365 0.965 5.355 0.625 6.375 C-0.035 6.045 -0.695 5.715 -1.375 5.375 C-1.045 4.715 -0.715 4.055 -0.375 3.375 C-1.365 3.375 -2.355 3.375 -3.375 3.375 C-3.375 4.365 -3.375 5.355 -3.375 6.375 C-6.33675123 5.76222388 -7.75558783 5.12127478 -10.375 3.375 C-4.25342466 -0.78767123 -4.25342466 -0.78767123 0 0 Z " fill="#EDF6F9" transform="translate(102.375,177.625)"/>
<path d="M0 0 C-0.33 9.9 -0.66 19.8 -1 30 C-1.33 30 -1.66 30 -2 30 C-2 22.08 -2 14.16 -2 6 C-2.99 6 -3.98 6 -5 6 C-4.625 3.5625 -4.625 3.5625 -4 1 C-2 0 -2 0 0 0 Z " fill="#4174E9" transform="translate(114,122)"/>
<path d="M0 0 C0.66 0 1.32 0 2 0 C2 3.63 2 7.26 2 11 C1.01 11 0.02 11 -1 11 C-0.67 9.68 -0.34 8.36 0 7 C-2.31 6.67 -4.62 6.34 -7 6 C-6.67 5.01 -6.34 4.02 -6 3 C-3.5 1.875 -3.5 1.875 -1 1 C-0.67 0.67 -0.34 0.34 0 0 Z " fill="#04BDF0" transform="translate(118,91)"/>
<path d="M0 0 C0 0.99 0 1.98 0 3 C1.65 3.33 3.3 3.66 5 4 C5.66 5.98 6.32 7.96 7 10 C3.30123909 8.62712658 0.0485524 6.93644547 -3.3125 4.875 C-4.63701172 4.06675781 -4.63701172 4.06675781 -5.98828125 3.2421875 C-6.65214844 2.83226562 -7.31601563 2.42234375 -8 2 C-4.76674728 -0.15550181 -3.68800782 0 0 0 Z " fill="#5A71DF" transform="translate(104,173)"/>
<path d="M0 0 C1.98 0.66 3.96 1.32 6 2 C6 4.31 6 6.62 6 9 C8.97 9.495 8.97 9.495 12 10 C11.33333333 11.33333333 10.66666667 12.66666667 10 14 C10.66 14 11.32 14 12 14 C11.67 14.66 11.34 15.32 11 16 C6.50683005 11.90328622 3.02186027 7.28565938 0 2 C0 1.34 0 0.68 0 0 Z " fill="#7066DC" transform="translate(8,161)"/>
<path d="M0 0 C3.3721049 1.44518781 5.69880363 3.12350453 8 6 C8.1875 8.625 8.1875 8.625 8 11 C8.33 11.66 8.66 12.32 9 13 C4.97913049 11.19754125 2.72402426 9.5242616 0.8125 5.5 C0 3 0 3 0 0 Z " fill="#15DAE3" transform="translate(174,91)"/>
<path d="M0 0 C0.99 0.33 1.98 0.66 3 1 C2.67 5.95 2.34 10.9 2 16 C1.01 16 0.02 16 -1 16 C-1.02685095 13.52076199 -1.04676547 11.0418116 -1.0625 8.5625 C-1.07506836 7.50192383 -1.07506836 7.50192383 -1.08789062 6.41992188 C-1.09653588 4.61306441 -1.05220011 2.80612397 -1 1 C-0.67 0.67 -0.34 0.34 0 0 Z " fill="#7B4ADC" transform="translate(45,61)"/>
<path d="M0 0 C1.07765625 0.10183594 2.1553125 0.20367187 3.265625 0.30859375 C4.08546875 0.39238281 4.9053125 0.47617188 5.75 0.5625 C5.42 1.5525 5.09 2.5425 4.75 3.5625 C-0.2 3.5625 -5.15 3.5625 -10.25 3.5625 C-10.25 2.5725 -10.25 1.5825 -10.25 0.5625 C-6.70049966 -0.60056443 -3.69176052 -0.36115049 0 0 Z " fill="#1196F7" transform="translate(138.25,164.4375)"/>
<path d="M0 0 C1.43791516 0.14168137 2.8753237 0.28851043 4.3125 0.4375 C5.11300781 0.51871094 5.91351563 0.59992187 6.73828125 0.68359375 C9 1 9 1 12 2 C11.67 3.65 11.34 5.3 11 7 C8.36 7 5.72 7 3 7 C3 6.34 3 5.68 3 5 C3.66 4.67 4.32 4.34 5 4 C4.67 3.01 4.34 2.02 4 1 C1.98491642 0.26676204 1.98491642 0.26676204 0 0 Z " fill="#10BDEE" transform="translate(109,9)"/>
<path d="M0 0 C3.3 0.33 6.6 0.66 10 1 C10 2.98 10 4.96 10 7 C3.84765625 6.4140625 3.84765625 6.4140625 2 6 C1.67 5.34 1.34 4.68 1 4 C1.33 3.01 1.66 2.02 2 1 C1.34 0.67 0.68 0.34 0 0 Z " fill="#1592F6" transform="translate(126,184)"/>
<path d="M0 0 C1.32 0.33 2.64 0.66 4 1 C3.38857603 8.45937249 3.38857603 8.45937249 1.5625 11 C0 12 0 12 -2 12 C-1.67 9.69 -1.34 7.38 -1 5 C-0.34 5 0.32 5 1 5 C1 4.34 1 3.68 1 3 C0.01 3.33 -0.98 3.66 -2 4 C-1.34 2.68 -0.68 1.36 0 0 Z " fill="#0DDDE7" transform="translate(178,168)"/>
<path d="M0 0 C1.32 0 2.64 0 4 0 C4 0.66 4 1.32 4 2 C6.64 2 9.28 2 12 2 C12 2.66 12 3.32 12 4 C12.66 4.33 13.32 4.66 14 5 C12.08404032 5.08133791 10.16708068 5.13934367 8.25 5.1875 C6.64898437 5.23970703 6.64898437 5.23970703 5.015625 5.29296875 C1.69972145 4.97082786 0.40983327 4.22851086 -2 2 C-1.34 2 -0.68 2 0 2 C0 1.34 0 0.68 0 0 Z " fill="#07A0F8" transform="translate(44,163)"/>
<path d="M0 0 C3.96 0.33 7.92 0.66 12 1 C12 1.33 12 1.66 12 2 C10.02 2 8.04 2 6 2 C6 2.66 6 3.32 6 4 C6.804375 4.2475 7.60875 4.495 8.4375 4.75 C11 6 11 6 11.8125 8.125 C11.874375 8.74375 11.93625 9.3625 12 10 C6.74308545 8.56629603 3.48214849 5.00396901 0 1 C0 0.67 0 0.34 0 0 Z " fill="#F0F5F4" transform="translate(34,151)"/>
<path d="M0 0 C1.09054688 0.02320312 2.18109375 0.04640625 3.3046875 0.0703125 C4.40039062 0.08835937 5.49609375 0.10640625 6.625 0.125 C7.46804687 0.14820312 8.31109375 0.17140625 9.1796875 0.1953125 C9.1796875 0.8553125 9.1796875 1.5153125 9.1796875 2.1953125 C4.7246875 2.6903125 4.7246875 2.6903125 0.1796875 3.1953125 C0.1796875 4.1853125 0.1796875 5.1753125 0.1796875 6.1953125 C-0.8103125 6.5253125 -1.8003125 6.8553125 -2.8203125 7.1953125 C-3.4803125 5.5453125 -4.1403125 3.8953125 -4.8203125 2.1953125 C-2.8203125 0.1953125 -2.8203125 0.1953125 0 0 Z " fill="#0D98F9" transform="translate(44.8203125,103.8046875)"/>
<path d="M0 0 C1.98 0 3.96 0 6 0 C6 2.31 6 4.62 6 7 C4.68 7 3.36 7 2 7 C1.67 6.34 1.34 5.68 1 5 C-1.02463255 4.34786708 -1.02463255 4.34786708 -3 4 C-2.67 3.01 -2.34 2.02 -2 1 C-1.67 1.33 -1.34 1.66 -1 2 C-0.67 1.34 -0.34 0.68 0 0 Z " fill="#3A7AF0" transform="translate(26,176)"/>
<path d="M0 0 C3.96 0 7.92 0 12 0 C10.66144904 2.67710191 9.27941912 2.95129094 6.5625 4.125 C5.75941406 4.47820312 4.95632812 4.83140625 4.12890625 5.1953125 C2 6 2 6 0 6 C0 4.02 0 2.04 0 0 Z " fill="#14E6E2" transform="translate(144,96)"/>
<path d="M0 0 C0.66 0 1.32 0 2 0 C2.08681476 3.62484999 2.14032721 7.24943443 2.1875 10.875 C2.22520508 12.42380859 2.22520508 12.42380859 2.26367188 14.00390625 C2.27333984 14.99003906 2.28300781 15.97617188 2.29296875 16.9921875 C2.3086792 17.90339355 2.32438965 18.81459961 2.34057617 19.75341797 C2.22818604 20.49479004 2.1157959 21.23616211 2 22 C1.01 22.66 0.02 23.32 -1 24 C-0.67 16.08 -0.34 8.16 0 0 Z " fill="#4274E4" transform="translate(25,128)"/>
<path d="M0 0 C0.33 0 0.66 0 1 0 C1.05423638 1.91635217 1.09289963 3.83314925 1.125 5.75 C1.14820313 6.81734375 1.17140625 7.8846875 1.1953125 8.984375 C1.00487687 11.92470106 0.52670104 13.52361878 -1 16 C-1.66 15.67 -2.32 15.34 -3 15 C-2.5547115 9.72684667 -1.91626837 4.98229776 0 0 Z " fill="#8460DA" transform="translate(47,44)"/>
<path d="M0 0 C2.64 0.33 5.28 0.66 8 1 C8 2.32 8 3.64 8 5 C7.34 5 6.68 5 6 5 C5.67 5.99 5.34 6.98 5 8 C2.5 5.6875 2.5 5.6875 0 3 C0 2.01 0 1.02 0 0 Z " fill="#06BDF4" transform="translate(112,32)"/>
<path d="M0 0 C1.33804688 0.04060547 1.33804688 0.04060547 2.703125 0.08203125 C3.37859375 0.11683594 4.0540625 0.15164062 4.75 0.1875 C0.89766237 3.80636262 -1.94997555 4.98749908 -7.25 5.1875 C-7.91 4.5275 -8.57 3.8675 -9.25 3.1875 C-6.10408067 0.38704377 -4.182936 -0.16511589 0 0 Z " fill="#13D5E4" transform="translate(81.25,183.8125)"/>
<path d="M0 0 C0.66 0 1.32 0 2 0 C2.33 2.97 2.66 5.94 3 9 C2.34 9 1.68 9 1 9 C1 7.35 1 5.7 1 4 C0.34 4 -0.32 4 -1 4 C-1 9.28 -1 14.56 -1 20 C-1.33 20 -1.66 20 -2 20 C-2 14.06 -2 8.12 -2 2 C-1.34 2 -0.68 2 0 2 C0 1.34 0 0.68 0 0 Z " fill="#3C75F5" transform="translate(26,124)"/>
<path d="M0 0 C0.763125 0.20625 1.52625 0.4125 2.3125 0.625 C2.3125 1.615 2.3125 2.605 2.3125 3.625 C3.075625 3.769375 3.83875 3.91375 4.625 4.0625 C7.3125 4.625 7.3125 4.625 10.3125 5.625 C7.9375 7 7.9375 7 4.3125 7.625 C0.73036702 5.98318905 -2.46348396 3.88053692 -5.6875 1.625 C-2.6875 -0.375 -2.6875 -0.375 0 0 Z " fill="#F2F2F6" transform="translate(94.6875,120.375)"/>
<path d="M0 0 C2.4375 1.5625 2.4375 1.5625 4 3 C-0.51718381 4.36884358 -3.58774263 3.47075246 -8 2 C-8.66 2.66 -9.32 3.32 -10 4 C-10.99 3.67 -11.98 3.34 -13 3 C-8.33136082 -0.75768519 -5.82734314 -1.61870643 0 0 Z " fill="#E8F1F6" transform="translate(146,106)"/>
<path d="M0 0 C0 0.66 0 1.32 0 2 C-0.66 2 -1.32 2 -2 2 C-2 2.99 -2 3.98 -2 5 C-1.34 5 -0.68 5 0 5 C-0.33 5.99 -0.66 6.98 -1 8 C-2.65 7.67 -4.3 7.34 -6 7 C-6 6.34 -6 5.68 -6 5 C-6.66 5 -7.32 5 -8 5 C-8 5.66 -8 6.32 -8 7 C-9.32 6.67 -10.64 6.34 -12 6 C-10.37829621 4.99466333 -8.75252763 3.99588093 -7.125 3 C-5.76761719 2.1646875 -5.76761719 2.1646875 -4.3828125 1.3125 C-2 0 -2 0 0 0 Z " fill="#E9F3F3" transform="translate(59,104)"/>
<path d="M0 0 C1.98 0 3.96 0 6 0 C6 0.66 6 1.32 6 2 C6.66 2.33 7.32 2.66 8 3 C6.8125 4.5 6.8125 4.5 5 6 C2.3125 6.1875 2.3125 6.1875 0 6 C0 4.02 0 2.04 0 0 Z " fill="#2C84F4" transform="translate(32,112)"/>
<path d="M0 0 C0 0.99 0 1.98 0 3 C-1.65 2.67 -3.3 2.34 -5 2 C-6.98 4.31 -8.96 6.62 -11 9 C-12.32 8.67 -13.64 8.34 -15 8 C-14.38125 7.938125 -13.7625 7.87625 -13.125 7.8125 C-12.073125 7.4103125 -12.073125 7.4103125 -11 7 C-10.30341637 5.34561387 -9.63903117 3.67745682 -9 2 C-5.92348384 -1.18260292 -4.16732566 -1.27334951 0 0 Z " fill="#11C1F7" transform="translate(127,85)"/>
<path d="M0 0 C4.30764815 1.56641751 8.06171464 3.68336156 12 6 C9.53721199 7.231394 7.7204945 7.07159196 5 7 C4.67 6.34 4.34 5.68 4 5 C3.01 4.67 2.02 4.34 1 4 C0.67 5.32 0.34 6.64 0 8 C0 5.36 0 2.72 0 0 Z " fill="#2BBFEB" transform="translate(156,80)"/>
<path d="M0 0 C0 0.33 0 0.66 0 1 C-2.60365928 1.22171552 -5.20696493 1.42784859 -7.8125 1.625 C-8.55048828 1.68945312 -9.28847656 1.75390625 -10.04882812 1.8203125 C-15.66015625 2.2265625 -15.66015625 2.2265625 -19 0 C-16.9617476 -0.39313474 -14.91914105 -0.76373122 -12.875 -1.125 C-11.73804687 -1.33382812 -10.60109375 -1.54265625 -9.4296875 -1.7578125 C-5.72969342 -2.01908771 -3.40335095 -1.39651179 0 0 Z " fill="#05A4FA" transform="translate(110,34)"/>
<path d="M0 0 C-0.33 4.95 -0.66 9.9 -1 15 C-1.33 15 -1.66 15 -2 15 C-2 12.36 -2 9.72 -2 7 C-2.66 7 -3.32 7 -4 7 C-4 5.02 -4 3.04 -4 1 C-2 0 -2 0 0 0 Z " fill="#18DEE1" transform="translate(86,153)"/>
<path d="M0 0 C-4 3 -8 6 -12 9 C-12.33 8.01 -12.66 7.02 -13 6 C-11.625 4.5 -11.625 4.5 -10 3 C-9.34 3 -8.68 3 -8 3 C-8 2.34 -8 1.68 -8 1 C-4.85571151 -0.9090323 -3.47925125 -1.04523725 0 0 Z " fill="#EAEEF3" transform="translate(29,89)"/>
<path d="M0 0 C2 2 2 2 2 5 C-1.75 6.125 -1.75 6.125 -4 5 C-4 4.34 -4 3.68 -4 3 C-5.32 2.34 -6.64 1.68 -8 1 C-5.03104944 0.01034981 -3.0913386 -0.23779528 0 0 Z " fill="#099CF6" transform="translate(48,185)"/>
<path d="M0 0 C1.84765625 0.33984375 1.84765625 0.33984375 4.0625 0.9375 C5.16271484 1.22947266 5.16271484 1.22947266 6.28515625 1.52734375 C7.13400391 1.76130859 7.13400391 1.76130859 8 2 C8 2.66 8 3.32 8 4 C5.1875 5.5625 5.1875 5.5625 2 7 C1.01 6.67 0.02 6.34 -1 6 C-0.34 4.68 0.32 3.36 1 2 C0.34 1.67 -0.32 1.34 -1 1 C-0.67 0.67 -0.34 0.34 0 0 Z " fill="#1AEBD9" transform="translate(91,174)"/>
<path d="M0 0 C0.66 0.33 1.32 0.66 2 1 C-0.81865285 5.31606218 -0.81865285 5.31606218 -3 7 C-5.94828161 7.24523599 -8.07230735 6.69470673 -11 6 C-8.66460191 4.44306794 -6.42031244 3.09799354 -3.9375 1.8125 C-2.89916016 1.26529297 -2.89916016 1.26529297 -1.83984375 0.70703125 C-1.23269531 0.47371094 -0.62554687 0.24039063 0 0 Z " fill="#2CC7E6" transform="translate(75,158)"/>
<path d="M0 0 C0.57234375 0.21527344 1.1446875 0.43054688 1.734375 0.65234375 C-0.245625 1.64234375 -0.245625 1.64234375 -2.265625 2.65234375 C-1.275625 2.98234375 -0.285625 3.31234375 0.734375 3.65234375 C0.734375 4.31234375 0.734375 4.97234375 0.734375 5.65234375 C-1.905625 5.32234375 -4.545625 4.99234375 -7.265625 4.65234375 C-7.595625 5.31234375 -7.925625 5.97234375 -8.265625 6.65234375 C-8.925625 5.99234375 -9.585625 5.33234375 -10.265625 4.65234375 C-9.02618224 3.78292881 -7.77355441 2.93228918 -6.515625 2.08984375 C-5.81953125 1.61417969 -5.1234375 1.13851562 -4.40625 0.6484375 C-2.265625 -0.34765625 -2.265625 -0.34765625 0 0 Z " fill="#3A94E8" transform="translate(42.265625,81.34765625)"/>
<path d="M0 0 C-0.33 1.65 -0.66 3.3 -1 5 C-3.31 5.33 -5.62 5.66 -8 6 C-7.01 5.67 -6.02 5.34 -5 5 C-5 4.34 -5 3.68 -5 3 C-6.32 2.67 -7.64 2.34 -9 2 C-5.86501708 0.14223235 -3.62528568 -0.20140476 0 0 Z " fill="#0D94F8" transform="translate(48,82)"/>
<path d="M0 0 C2.97 0 5.94 0 9 0 C9.309375 0.78375 9.61875 1.5675 9.9375 2.375 C10.92875038 4.92330128 10.92875038 4.92330128 12 7 C7.69235185 5.43358249 3.93828536 3.31663844 0 1 C0 0.67 0 0.34 0 0 Z " fill="#2DD1E2" transform="translate(72,112)"/>
<path d="M0 0 C0.66 0 1.32 0 2 0 C2 0.66 2 1.32 2 2 C2.99 2.33 3.98 2.66 5 3 C4.01 3.33 3.02 3.66 2 4 C2.33 4.99 2.66 5.98 3 7 C1.35 7 -0.3 7 -2 7 C-1.34 6.67 -0.68 6.34 0 6 C0 5.34 0 4.68 0 4 C-2.475 3.01 -2.475 3.01 -5 2 C-4.360625 1.855625 -3.72125 1.71125 -3.0625 1.5625 C-1.02454854 1.18992819 -1.02454854 1.18992819 0 0 Z " fill="#E3ECF5" transform="translate(99,91)"/>
<path d="M0 0 C6.625 0.75 6.625 0.75 10 3 C10 3.66 10 4.32 10 5 C9.34 5 8.68 5 8 5 C8 4.34 8 3.68 8 3 C7.01 3.33 6.02 3.66 5 4 C3 4 1 4 -1 4 C-0.67 2.68 -0.34 1.36 0 0 Z " fill="#09B5F9" transform="translate(59,75)"/>
<path d="M0 0 C3.3 0 6.6 0 10 0 C10 0.66 10 1.32 10 2 C12.64 2 15.28 2 18 2 C18 2.33 18 2.66 18 3 C5.33029613 3.3690205 5.33029613 3.3690205 0 1 C0 0.67 0 0.34 0 0 Z " fill="#F1F6F9" transform="translate(46,161)"/>
<path d="M0 0 C0.33 0 0.66 0 1 0 C1.06058594 1.24136719 1.12117187 2.48273438 1.18359375 3.76171875 C1.26803623 5.40365577 1.35268236 7.04558232 1.4375 8.6875 C1.47681641 9.50412109 1.51613281 10.32074219 1.55664062 11.16210938 C1.76898003 15.19655811 2.04447922 19.05747309 3 23 C2.34 23 1.68 23 1 23 C1 22.01 1 21.02 1 20 C0.34 20 -0.32 20 -1 20 C-0.67 13.4 -0.34 6.8 0 0 Z " fill="#18F7E2" transform="translate(153,62)"/>
<path d="M0 0 C0 0.66 0 1.32 0 2 C-0.99 2 -1.98 2 -3 2 C-3 2.66 -3 3.32 -3 4 C-1.68 4.33 -0.36 4.66 1 5 C-3.04141194 5.63394697 -6.9065307 6.12404452 -11 6 C-8.24029211 2.78034079 -4.3526723 0 0 0 Z " fill="#E9F1F6" transform="translate(126,114)"/>
<path d="M0 0 C0.66 0.33 1.32 0.66 2 1 C1.525625 1.763125 1.05125 2.52625 0.5625 3.3125 C-1.10106097 5.96410548 -1.10106097 5.96410548 -2 9 C-3.65 9.33 -5.3 9.66 -7 10 C-5.6062718 5.56541027 -3.39417765 3.12621626 0 0 Z " fill="#6C6ED9" transform="translate(17,98)"/>
<path d="M0 0 C1.8125 1.375 1.8125 1.375 2.5625 3.5 C2.68625 4.428125 2.68625 4.428125 2.8125 5.375 C-2.72596154 4.75961538 -2.72596154 4.75961538 -5.0625 2.8125 C-5.43375 2.338125 -5.805 1.86375 -6.1875 1.375 C-3.79410847 -0.16360884 -2.80166935 -0.80047696 0 0 Z " fill="#6A58DC" transform="translate(96.1875,168.625)"/>
<path d="M0 0 C0.33 0 0.66 0 1 0 C0.979375 0.804375 0.95875 1.60875 0.9375 2.4375 C0.70366379 4.93354885 0.70366379 4.93354885 2 6 C2.04063832 7.66617115 2.042721 9.33388095 2 11 C1.34 11 0.68 11 0 11 C-0.33 10.34 -0.66 9.68 -1 9 C-1.33 9.99 -1.66 10.98 -2 12 C-2.66 12 -3.32 12 -4 12 C-2.66666667 8 -1.33333333 4 0 0 Z " fill="#31C9E3" transform="translate(169,141)"/>
<path d="M0 0 C-0.33 0.66 -0.66 1.32 -1 2 C-3.32156597 2.40729228 -5.6568787 2.74438677 -8 3 C-8 2.34 -8 1.68 -8 1 C-8.66 1 -9.32 1 -10 1 C-10.33 1.66 -10.66 2.32 -11 3 C-11.66 2.34 -12.32 1.68 -13 1 C-8.20862412 -0.6290678 -4.94367454 -1.20577428 0 0 Z " fill="#EFF8F6" transform="translate(109,90)"/>
<path d="M0 0 C-1.45449401 1.0055761 -2.91372443 2.00430435 -4.375 3 C-5.59316406 3.8353125 -5.59316406 3.8353125 -6.8359375 4.6875 C-9 6 -9 6 -11 6 C-10.67 5.01 -10.34 4.02 -10 3 C-9.34 3 -8.68 3 -8 3 C-7.67 2.01 -7.34 1.02 -7 0 C-2.25 -1.125 -2.25 -1.125 0 0 Z " fill="#1BCBE4" transform="translate(176,181)"/>
<path d="M0 0 C0 0.99 0 1.98 0 3 C0.31421071 5.00309329 0.6451046 7.00371336 1 9 C-1 9 -3 9 -5 9 C-3.90931332 5.22454612 -3.0916909 2.52956528 0 0 Z " fill="#EBF1F7" transform="translate(79,45)"/>
<path d="M0 0 C0.99 0.66 1.98 1.32 3 2 C1.68 4.31 0.36 6.62 -1 9 C-1.66 9 -2.32 9 -3 9 C-3.36923077 3.46153846 -3.36923077 3.46153846 -1.5 1.125 C-1.005 0.75375 -0.51 0.3825 0 0 Z " fill="#437CEA" transform="translate(75,45)"/>
<path d="M0 0 C1.45922693 0.11409593 2.91740598 0.24165544 4.375 0.375 C5.59316406 0.47941406 5.59316406 0.47941406 6.8359375 0.5859375 C9 1 9 1 11 3 C9.4375 4.1875 9.4375 4.1875 7 5 C3.25 3.625 3.25 3.625 0 2 C0 1.34 0 0.68 0 0 Z " fill="#F0F6F6" transform="translate(118,9)"/>
<path d="M0 0 C0.33 0 0.66 0 1 0 C1.10957031 0.58007812 1.21914063 1.16015625 1.33203125 1.7578125 C2.3143365 6.59746277 3.54821911 10.65366116 6 15 C3.34645489 14.02703346 2.20122104 13.34207577 0.75 10.875 C-0.22875273 7.12311455 -0.13130728 3.8735649 0 0 Z " fill="#5891E4" transform="translate(30,139)"/>
<path d="M0 0 C0.66 1.32 1.32 2.64 2 4 C-1.465 5.485 -1.465 5.485 -5 7 C-5.99 6.01 -6.98 5.02 -8 4 C-7.236875 3.71125 -6.47375 3.4225 -5.6875 3.125 C-2.84970692 2.03730987 -2.84970692 2.03730987 0 0 Z " fill="#139EF9" transform="translate(50,76)"/>
<path d="M0 0 C0.66 0 1.32 0 2 0 C2.33 2.64 2.66 5.28 3 8 C0.03 6.02 -2.94 4.04 -6 2 C-4.68 1.67 -3.36 1.34 -2 1 C-1.67 1.33 -1.34 1.66 -1 2 C-0.67 1.34 -0.34 0.68 0 0 Z " fill="#2ABEE6" transform="translate(118,37)"/>
<path d="M0 0 C7.38461538 -0.49230769 7.38461538 -0.49230769 10.5 2 C10.995 2.66 11.49 3.32 12 4 C10.7934375 3.7525 10.7934375 3.7525 9.5625 3.5 C7.2715557 2.96808161 7.2715557 2.96808161 6 3 C3 3 3 3 1.3125 1.5 C0.879375 1.005 0.44625 0.51 0 0 Z " fill="#17C1F6" transform="translate(108,100)"/>
<path d="M0 0 C1.65 0 3.3 0 5 0 C5.66 1.32 6.32 2.64 7 4 C5.02 4.66 3.04 5.32 1 6 C0 1.125 0 1.125 0 0 Z " fill="#05B4F6" transform="translate(108,10)"/>
<path d="M0 0 C2.31 0.33 4.62 0.66 7 1 C6.67 1.99 6.34 2.98 6 4 C6.66 4.33 7.32 4.66 8 5 C4.26512223 4.5020163 2.18762365 4.12508244 -1 2 C-0.67 1.34 -0.34 0.68 0 0 Z " fill="#369AEE" transform="translate(38,186)"/>
<path d="M0 0 C0.33 0.66 0.66 1.32 1 2 C2.98 2 4.96 2 7 2 C7.33 3.32 7.66 4.64 8 6 C6.51800098 5.55090939 5.03944764 5.09043436 3.5625 4.625 C2.73878906 4.36976563 1.91507812 4.11453125 1.06640625 3.8515625 C-1 3 -1 3 -2 1 C-1.34 0.67 -0.68 0.34 0 0 Z " fill="#EFF4F1" transform="translate(120,153)"/>
<path d="M0 0 C0.66 0.33 1.32 0.66 2 1 C1.2890625 2.921875 1.2890625 2.921875 0 5 C-2.1640625 5.828125 -2.1640625 5.828125 -4.625 6.25 C-5.85089844 6.47429687 -5.85089844 6.47429687 -7.1015625 6.703125 C-7.72804687 6.80109375 -8.35453125 6.8990625 -9 7 C-6.28672425 4.15635664 -3.30410823 2.12931419 0 0 Z " fill="#D6EEF7" transform="translate(176,180)"/>
<path d="M0 0 C0.66 0 1.32 0 2 0 C2 0.66 2 1.32 2 2 C4.97 2.495 4.97 2.495 8 3 C7.33333333 4.33333333 6.66666667 5.66666667 6 7 C6.66 7 7.32 7 8 7 C7.67 7.66 7.34 8.32 7 9 C4.03595495 6.19195732 1.55500981 3.81684226 0 0 Z " fill="#757CDF" transform="translate(12,168)"/>
<path d="M0 0 C0.625 1.875 0.625 1.875 1 4 C0.34 4.66 -0.32 5.32 -1 6 C-4.125 5.625 -4.125 5.625 -7 5 C-2.25 1.125 -2.25 1.125 0 0 Z " fill="#23BAEE" transform="translate(159,158)"/>
<path d="M0 0 C2 2 2 2 2 5 C0.68 5 -0.64 5 -2 5 C-2.33 5.66 -2.66 6.32 -3 7 C-3.66 7 -4.32 7 -5 7 C-4.1875 4.0625 -4.1875 4.0625 -3 1 C-2.01 0.67 -1.02 0.34 0 0 Z " fill="#EEF2F4" transform="translate(197,155)"/>
<path d="M0 0 C0.33 0.66 0.66 1.32 1 2 C1.66 2 2.32 2 3 2 C2.25 8.625 2.25 8.625 0 12 C0 8.04 0 4.08 0 0 Z " fill="#2FEAD5" transform="translate(194,144)"/>
<path d="M0 0 C0 5 0 10 0 15 C-0.99 15.495 -0.99 15.495 -2 16 C-2.66 15.34 -3.32 14.68 -4 14 C-3.34 14 -2.68 14 -2 14 C-2 9.71 -2 5.42 -2 1 C-1.34 0.67 -0.68 0.34 0 0 Z " fill="#05DDF0" transform="translate(84,101)"/>
<path d="M0 0 C0.33 1.32 0.66 2.64 1 4 C0.34 4 -0.32 4 -1 4 C-1.99 5.485 -1.99 5.485 -3 7 C-3.99 5.68 -4.98 4.36 -6 3 C-3.375 0 -3.375 0 0 0 Z " fill="#F0F5F9" transform="translate(183,89)"/>
<path d="M0 0 C2.475 0.99 2.475 0.99 5 2 C4.649375 2.61875 4.29875 3.2375 3.9375 3.875 C3.628125 4.57625 3.31875 5.2775 3 6 C3.33 6.66 3.66 7.32 4 8 C2.68 8 1.36 8 0 8 C0 5.36 0 2.72 0 0 Z " fill="#19C9EB" transform="translate(72,80)"/>
<path d="M0 0 C2.97 0 5.94 0 9 0 C8.67 0.66 8.34 1.32 8 2 C5.35139573 2.59355614 2.70802678 2.74209269 0 3 C0 2.01 0 1.02 0 0 Z " fill="#1DC1EC" transform="translate(64,189)"/>
<path d="M0 0 C0.99 0.33 1.98 0.66 3 1 C2.67 1.99 2.34 2.98 2 4 C1.34 4 0.68 4 0 4 C-0.28875 4.639375 -0.5775 5.27875 -0.875 5.9375 C-2 8 -2 8 -4 9 C-3.6875 6.125 -3.6875 6.125 -3 3 C-2.01 2.34 -1.02 1.68 0 1 C0 0.67 0 0.34 0 0 Z " fill="#2DDFDA" transform="translate(185,167)"/>
<path d="M0 0 C1.65 0.33 3.3 0.66 5 1 C5 1.99 5 2.98 5 4 C2.36 4 -0.28 4 -3 4 C-2.01 2.68 -1.02 1.36 0 0 Z " fill="#09C2F3" transform="translate(67,164)"/>
<path d="M0 0 C0.33 0.99 0.66 1.98 1 3 C0.00692179 4.33849671 -0.99357052 5.67151309 -2 7 C-2 8.32 -2 9.64 -2 11 C-2.99 10.67 -3.98 10.34 -5 10 C-3.84414715 6.08788267 -2.64465038 3.1254959 0 0 Z " fill="#E5EFF6" transform="translate(37,117)"/>
<path d="M0 0 C2.64 1.98 5.28 3.96 8 6 C4 7 4 7 2 6 C2 5.34 2 4.68 2 4 C1.34 4 0.68 4 0 4 C0 2.68 0 1.36 0 0 Z " fill="#EDF4F3" transform="translate(18,176)"/>
<path d="M0 0 C0.99 0 1.98 0 3 0 C3.6875 1.8125 3.6875 1.8125 4 4 C2.6875 5.75 2.6875 5.75 1 7 C0.34 7 -0.32 7 -1 7 C-0.67 4.69 -0.34 2.38 0 0 Z " fill="#1DDAE3" transform="translate(177,173)"/>
<path d="M0 0 C0.66 0 1.32 0 2 0 C3 6.625 3 6.625 3 10 C2.01 9.67 1.02 9.34 0 9 C0 6.03 0 3.06 0 0 Z " fill="#5A5FE6" transform="translate(14,161)"/>
<path d="M0 0 C1.98 1.65 3.96 3.3 6 5 C3 6 3 6 -1 6 C-0.67 4.02 -0.34 2.04 0 0 Z " fill="#3E92F0" transform="translate(36,154)"/>
<path d="M0 0 C0.99 0.33 1.98 0.66 3 1 C3 1.66 3 2.32 3 3 C3.99 3.33 4.98 3.66 6 4 C5.67 4.99 5.34 5.98 5 7 C3.02 5.35 1.04 3.7 -1 2 C-0.67 1.34 -0.34 0.68 0 0 Z " fill="#EDF5F9" transform="translate(138,20)"/>
<path d="M0 0 C3.9492568 0.55105909 7.34920174 1.38935371 11 3 C11 3.33 11 3.66 11 4 C3.49230769 3.38461538 3.49230769 3.38461538 1 1.4375 C0.67 0.963125 0.34 0.48875 0 0 Z " fill="#F4F5ED" transform="translate(31,187)"/>
<path d="M0 0 C2.475 0.495 2.475 0.495 5 1 C5 1.66 5 2.32 5 3 C5.99 2.67 6.98 2.34 8 2 C8.33 3.32 8.66 4.64 9 6 C7.68397477 5.38245741 6.37226444 4.75571258 5.0625 4.125 C4.33160156 3.77695313 3.60070312 3.42890625 2.84765625 3.0703125 C1 2 1 2 0 0 Z " fill="#5E88E2" transform="translate(23,180)"/>
<path d="M0 0 C0.5534764 2.07553648 1 3.84365964 1 6 C-1.64 6 -4.28 6 -7 6 C-6.01 5.67 -5.02 5.34 -4 5 C-4 4.34 -4 3.68 -4 3 C-2 1.375 -2 1.375 0 0 Z " fill="#04BAF1" transform="translate(159,162)"/>
<path d="M0 0 C0 1.65 0 3.3 0 5 C-1.98 5 -3.96 5 -6 5 C-4.87312259 1.61936778 -3.78825335 0 0 0 Z " fill="#23D5E7" transform="translate(82,155)"/>
<path d="M0 0 C0.66 0 1.32 0 2 0 C2.185625 1.2065625 2.185625 1.2065625 2.375 2.4375 C2.58125 3.283125 2.7875 4.12875 3 5 C3.66 5.33 4.32 5.66 5 6 C6.125 8.0625 6.125 8.0625 7 10 C3.535 8.02 3.535 8.02 0 6 C0.33 5.34 0.66 4.68 1 4 C0.60061233 1.90178785 0.60061233 1.90178785 0 0 Z " fill="#27C2EB" transform="translate(156,107)"/>
<path d="M0 0 C0.66 0.33 1.32 0.66 2 1 C1.690625 1.598125 1.38125 2.19625 1.0625 2.8125 C-0.10209704 5.08956772 -0.10209704 5.08956772 -1 8 C-1.99 7.67 -2.98 7.34 -4 7 C-3.43628586 3.73045798 -2.50037734 2.17424117 0 0 Z " fill="#5A76E7" transform="translate(24,91)"/>
<path d="M0 0 C0.66 0.66 1.32 1.32 2 2 C1.67 2.66 1.34 3.32 1 4 C1.66 4 2.32 4 3 4 C3 5.32 3 6.64 3 8 C1.68 8 0.36 8 -1 8 C-0.67 5.36 -0.34 2.72 0 0 Z " fill="#11F2DB" transform="translate(149,40)"/>
<path d="M0 0 C0.66 0.33 1.32 0.66 2 1 C-0.3125 3.5 -0.3125 3.5 -3 6 C-3.99 6 -4.98 6 -6 6 C-6 5.34 -6 4.68 -6 4 C-4.03852126 2.61061923 -2.03833424 1.2739589 0 0 Z " fill="#E7F0F3" transform="translate(86,39)"/>
<path d="M0 0 C0.5534764 2.07553648 1 3.84365964 1 6 C0.34 6 -0.32 6 -1 6 C-1.33 6.99 -1.66 7.98 -2 9 C-2.66 9 -3.32 9 -4 9 C-2.94124926 5.59687262 -1.99097846 2.98646769 0 0 Z " fill="#7F68DA" transform="translate(52,34)"/>
<path d="M0 0 C1 3 1 3 0.0625 5.1875 C-0.4634375 6.0846875 -0.4634375 6.0846875 -1 7 C-2.32 6.34 -3.64 5.68 -5 5 C-3.35 3.35 -1.7 1.7 0 0 Z " fill="#5462E0" transform="translate(63,25)"/>
<path d="M0 0 C0 0.66 0 1.32 0 2 C-0.99 2 -1.98 2 -3 2 C-2.67 3.32 -2.34 4.64 -2 6 C-3.9375 5.625 -3.9375 5.625 -6 5 C-6.33 4.34 -6.66 3.68 -7 3 C-2.25 0 -2.25 0 0 0 Z " fill="#E2F1F2" transform="translate(88,184)"/>
<path d="M0 0 C0.33 0.99 0.66 1.98 1 3 C-0.98 3.99 -0.98 3.99 -3 5 C-3 4.34 -3 3.68 -3 3 C-4.32 3 -5.64 3 -7 3 C-7 2.34 -7 1.68 -7 1 C-3.535 0.505 -3.535 0.505 0 0 Z " fill="#EFF8F4" transform="translate(79,153)"/>
<path d="M0 0 C3.96 1.98 3.96 1.98 8 4 C7.01 4.66 6.02 5.32 5 6 C4.34 5.67 3.68 5.34 3 5 C2.01 4.67 1.02 4.34 0 4 C0 2.68 0 1.36 0 0 Z " fill="#8465DB" transform="translate(86,120)"/>
<path d="M0 0 C1.32 0.33 2.64 0.66 4 1 C3.67 3.97 3.34 6.94 3 10 C1.19669467 6.39338934 0.53400897 3.91606575 0 0 Z " fill="#E4F2F2" transform="translate(195,118)"/>
<path d="M0 0 C1.32 0 2.64 0 4 0 C3.34 1.65 2.68 3.3 2 5 C-0.475 4.01 -0.475 4.01 -3 3 C-2.01 2.67 -1.02 2.34 0 2 C0 1.34 0 0.68 0 0 Z " fill="#3987EB" transform="translate(32,118)"/>
<path d="M0 0 C1.98 0.99 3.96 1.98 6 3 C6 3.99 6 4.98 6 6 C3.5625 5.25 3.5625 5.25 1 4 C0.1875 1.875 0.1875 1.875 0 0 Z " fill="#EDF5F9" transform="translate(73,113)"/>
<path d="M0 0 C1.65 1.65 3.3 3.3 5 5 C3.68 5.33 2.36 5.66 1 6 C-0.0625 4.125 -0.0625 4.125 -1 2 C-0.67 1.34 -0.34 0.68 0 0 Z " fill="#28E1E1" transform="translate(182,98)"/>
<path d="M0 0 C0.66 0.33 1.32 0.66 2 1 C1.67 1.66 1.34 2.32 1 3 C0.01 3 -0.98 3 -2 3 C-2.33 4.32 -2.66 5.64 -3 7 C-3.66 6.67 -4.32 6.34 -5 6 C-5 5.01 -5 4.02 -5 3 C-2.625 1.25 -2.625 1.25 0 0 Z " fill="#2AB8F0" transform="translate(114,87)"/>
<path d="M0 0 C0.66 0 1.32 0 2 0 C1.3125 2.375 1.3125 2.375 0 5 C-2.625 6.3125 -2.625 6.3125 -5 7 C-4.67 5.68 -4.34 4.36 -4 3 C-3.01 3 -2.02 3 -1 3 C-0.67 2.01 -0.34 1.02 0 0 Z " fill="#02B7F0" transform="translate(116,87)"/>
<path d="M0 0 C2.62187494 1.04874998 3.79371361 1.64931313 5.25 4.125 C5.4975 4.74375 5.745 5.3625 6 6 C4.68 6 3.36 6 2 6 C1.34 4.02 0.68 2.04 0 0 Z " fill="#27DDDA" transform="translate(139,25)"/>
<path d="M0 0 C0.99 0.33 1.98 0.66 3 1 C0.525 4.465 0.525 4.465 -2 8 C-3 5 -3 5 -2 2 C-1.34 2 -0.68 2 0 2 C0 1.34 0 0.68 0 0 Z " fill="#F1F1F6" transform="translate(56,24)"/>
<path d="M0 0 C0.598125 0.20625 1.19625 0.4125 1.8125 0.625 C1.8125 1.615 1.8125 2.605 1.8125 3.625 C-0.4975 2.965 -2.8075 2.305 -5.1875 1.625 C-2.1875 -0.375 -2.1875 -0.375 0 0 Z " fill="#06BEF2" transform="translate(160.1875,184.375)"/>
<path d="M0 0 C2 3.75 2 3.75 2 6 C2.99 6.33 3.98 6.66 5 7 C5 7.33 5 7.66 5 8 C3.02 8 1.04 8 -1 8 C-0.67 5.36 -0.34 2.72 0 0 Z " fill="#3977EA" transform="translate(27,144)"/>
<path d="M0 0 C1.65 0 3.3 0 5 0 C4.67 0.99 4.34 1.98 4 3 C2.02 3.33 0.04 3.66 -2 4 C-1.34 3.67 -0.68 3.34 0 3 C0 2.01 0 1.02 0 0 Z " fill="#11C3EC" transform="translate(120,112)"/>
<path d="M0 0 C0.99 0.33 1.98 0.66 3 1 C2.67 1.66 2.34 2.32 2 3 C1.01 3 0.02 3 -1 3 C-1 3.99 -1 4.98 -1 6 C-1.99 5.67 -2.98 5.34 -4 5 C-4 4.34 -4 3.68 -4 3 C-2.1875 1.3125 -2.1875 1.3125 0 0 Z " fill="#26AFE7" transform="translate(105,92)"/>
<path d="M0 0 C-1.65 0.66 -3.3 1.32 -5 2 C-4.67 2.99 -4.34 3.98 -4 5 C-5.32 4.67 -6.64 4.34 -8 4 C-7.6875 2.0625 -7.6875 2.0625 -7 0 C-3.86650268 -1.04449911 -3.01031744 -0.93423645 0 0 Z " fill="#4797E6" transform="translate(92,9)"/>
<path d="M0 0 C2.08954032 4.17908064 2.16552619 4.80410573 1 9 C0.34 9 -0.32 9 -1 9 C-0.67 6.03 -0.34 3.06 0 0 Z " fill="#8465DD" transform="translate(4,119)"/>
<path d="M0 0 C1.9375 0.8125 1.9375 0.8125 4 2 C4.33 2.99 4.66 3.98 5 5 C3.35 5 1.7 5 0 5 C0 3.35 0 1.7 0 0 Z " fill="#EDF1F9" transform="translate(159,115)"/>
<path d="M0 0 C1.32 0 2.64 0 4 0 C4.33 1.65 4.66 3.3 5 5 C4.34 5 3.68 5 3 5 C2.34 4.34 1.68 3.68 1 3 C0.01 2.67 -0.98 2.34 -2 2 C-1.34 1.34 -0.68 0.68 0 0 Z " fill="#06C2E8" transform="translate(162,112)"/>
<path d="M0 0 C0.99 0 1.98 0 3 0 C3 2.31 3 4.62 3 7 C2.34 7 1.68 7 1 7 C0.67 4.69 0.34 2.38 0 0 Z " fill="#1FDFE0" transform="translate(83,113)"/>
<path d="M0 0 C0.66 0 1.32 0 2 0 C5 4.38461538 5 4.38461538 5 7 C3.68 7 2.36 7 1 7 C0.67 4.69 0.34 2.38 0 0 Z " fill="#21E9DA" transform="translate(187,105)"/>
<path d="M0 0 C0.99 0.33 1.98 0.66 3 1 C3 1.66 3 2.32 3 3 C3.66 3 4.32 3 5 3 C4.34 4.32 3.68 5.64 3 7 C0 3.375 0 3.375 0 0 Z " fill="#1AC6F0" transform="translate(122,43)"/>
<path d="M0 0 C0.66 0.33 1.32 0.66 2 1 C1 4 1 4 -1.4375 5.75 C-2.7059375 6.36875 -2.7059375 6.36875 -4 7 C-4.66 6.67 -5.32 6.34 -6 6 C-4.02 4.02 -2.04 2.04 0 0 Z " fill="#6676DD" transform="translate(65,19)"/>
<path d="M0 0 C0.66 0.99 1.32 1.98 2 3 C0.02 4.32 -1.96 5.64 -4 7 C-4.33 6.34 -4.66 5.68 -5 5 C-4.34 5 -3.68 5 -3 5 C-2.67 4.01 -2.34 3.02 -2 2 C-1.34 2 -0.68 2 0 2 C0 1.34 0 0.68 0 0 Z " fill="#EFF4F2" transform="translate(67,14)"/>
</svg>
